G04 #@! TF.GenerationSoftware,KiCad,Pcbnew,(5.1.10)-1*
G04 #@! TF.CreationDate,2021-09-14T17:57:33+09:00*
G04 #@! TF.ProjectId,KiCAD,4b694341-442e-46b6-9963-61645f706362,rev?*
G04 #@! TF.SameCoordinates,Original*
G04 #@! TF.FileFunction,Soldermask,Top*
G04 #@! TF.FilePolarity,Negative*
%FSLAX46Y46*%
G04 Gerber Fmt 4.6, Leading zero omitted, Abs format (unit mm)*
G04 Created by KiCad (PCBNEW (5.1.10)-1) date 2021-09-14 17:57:33*
%MOMM*%
%LPD*%
G01*
G04 APERTURE LIST*
%ADD10C,2.200000*%
%ADD11C,4.000000*%
%ADD12O,1.700000X1.700000*%
%ADD13R,1.700000X1.700000*%
%ADD14C,3.050000*%
%ADD15R,1.800000X1.800000*%
%ADD16C,1.800000*%
%ADD17C,7.000000*%
G04 APERTURE END LIST*
D10*
X153035000Y-128905000D03*
X159385000Y-126365000D03*
D11*
X155575000Y-123825000D03*
D10*
X172085000Y-128905000D03*
X178435000Y-126365000D03*
D11*
X174625000Y-123825000D03*
D10*
X210185000Y-128905000D03*
X216535000Y-126365000D03*
D11*
X212725000Y-123825000D03*
D10*
X53023000Y-128905000D03*
X59373000Y-126365000D03*
D11*
X55563000Y-123825000D03*
D10*
X264953500Y-186055000D03*
X271303500Y-183515000D03*
D11*
X267493500Y-180975000D03*
D10*
X305435000Y-167005000D03*
X311785000Y-164465000D03*
D11*
X307975000Y-161925000D03*
D10*
X276860000Y-167005000D03*
X283210000Y-164465000D03*
D11*
X279400000Y-161925000D03*
D10*
X257810000Y-167005000D03*
X264160000Y-164465000D03*
D11*
X260350000Y-161925000D03*
D10*
X219710000Y-109855000D03*
X226060000Y-107315000D03*
D11*
X222250000Y-104775000D03*
D10*
X157797500Y-147955000D03*
X164147500Y-145415000D03*
D11*
X160337500Y-142875000D03*
D10*
X162560000Y-109855000D03*
X168910000Y-107315000D03*
D11*
X165100000Y-104775000D03*
D10*
X50641000Y-186055000D03*
X56991000Y-183515000D03*
D11*
X53181000Y-180975000D03*
D10*
X100647500Y-147955000D03*
X106997500Y-145415000D03*
D11*
X103187500Y-142875000D03*
D10*
X119697500Y-147955000D03*
X126047500Y-145415000D03*
D11*
X122237500Y-142875000D03*
D10*
X143510000Y-109855000D03*
X149860000Y-107315000D03*
D11*
X146050000Y-104775000D03*
D10*
X124460000Y-109855000D03*
X130810000Y-107315000D03*
D11*
X127000000Y-104775000D03*
D10*
X124460000Y-81280000D03*
X130810000Y-78740000D03*
D11*
X127000000Y-76200000D03*
D10*
X253047500Y-147955000D03*
X259397500Y-145415000D03*
D11*
X255587500Y-142875000D03*
D10*
X98266000Y-186055000D03*
X104616000Y-183515000D03*
D11*
X100806000Y-180975000D03*
D10*
X191135000Y-128905000D03*
X197485000Y-126365000D03*
D11*
X193675000Y-123825000D03*
D10*
X86360000Y-81280000D03*
X92710000Y-78740000D03*
D11*
X88900000Y-76200000D03*
D10*
X343535000Y-128905000D03*
X349885000Y-126365000D03*
D11*
X346075000Y-123825000D03*
D10*
X76835000Y-128905000D03*
X83185000Y-126365000D03*
D11*
X79375000Y-123825000D03*
D10*
X105410000Y-109855000D03*
X111760000Y-107315000D03*
D11*
X107950000Y-104775000D03*
D10*
X276860000Y-109855000D03*
X283210000Y-107315000D03*
D11*
X279400000Y-104775000D03*
D10*
X381635000Y-109855000D03*
X387985000Y-107315000D03*
D11*
X384175000Y-104775000D03*
D10*
X210185000Y-81280000D03*
X216535000Y-78740000D03*
D11*
X212725000Y-76200000D03*
D12*
X137096500Y-61531500D03*
X137096500Y-64071500D03*
D13*
X137096500Y-66611500D03*
D12*
X137096500Y-69151500D03*
X137096500Y-71691500D03*
X137096500Y-74231500D03*
X137096500Y-76771500D03*
D13*
X137096500Y-79311500D03*
D12*
X137096500Y-81851500D03*
X137096500Y-84391500D03*
X137096500Y-86931500D03*
X137096500Y-89471500D03*
D13*
X137096500Y-92011500D03*
D12*
X137096500Y-94551500D03*
X137096500Y-97091500D03*
X137096500Y-99631500D03*
X137096500Y-102171500D03*
D13*
X137096500Y-104711500D03*
D12*
X137096500Y-107251500D03*
X137096500Y-109791500D03*
X154876500Y-109791500D03*
X154876500Y-107251500D03*
D13*
X154876500Y-104711500D03*
D12*
X154876500Y-102171500D03*
X154876500Y-99631500D03*
X154876500Y-97091500D03*
X154876500Y-94551500D03*
D13*
X154876500Y-92011500D03*
D12*
X154876500Y-89471500D03*
X154876500Y-86931500D03*
X154876500Y-84391500D03*
X154876500Y-81851500D03*
D13*
X154876500Y-79311500D03*
D12*
X154876500Y-76771500D03*
X154876500Y-74231500D03*
X154876500Y-71691500D03*
X154876500Y-69151500D03*
D13*
X154876500Y-66611500D03*
D12*
X154876500Y-64071500D03*
X154876500Y-61531500D03*
D10*
X105410000Y-81280000D03*
X111760000Y-78740000D03*
D11*
X107950000Y-76200000D03*
D10*
X241141000Y-186055000D03*
X247491000Y-183515000D03*
D11*
X243681000Y-180975000D03*
D10*
X312578499Y-138430000D03*
X318928499Y-135890000D03*
D11*
X315118499Y-133350000D03*
X306878499Y-145250000D03*
X306878499Y-121450000D03*
D14*
X322118499Y-121450000D03*
X322118499Y-145250000D03*
D10*
X57785000Y-167005000D03*
X64135000Y-164465000D03*
D11*
X60325000Y-161925000D03*
D10*
X55404000Y-147955000D03*
X61754000Y-145415000D03*
D11*
X57944000Y-142875000D03*
D10*
X124460000Y-167005000D03*
X130810000Y-164465000D03*
D11*
X127000000Y-161925000D03*
D14*
X158750000Y-187975000D03*
X209550000Y-187975000D03*
D11*
X158750000Y-172735000D03*
X209550000Y-172735000D03*
D14*
X172250000Y-187975000D03*
X196050000Y-187975000D03*
D11*
X196050000Y-172735000D03*
X172250000Y-172735000D03*
X184150000Y-180975000D03*
D10*
X187960000Y-183515000D03*
X181610000Y-186055000D03*
X381635000Y-186055000D03*
X387985000Y-183515000D03*
D11*
X384175000Y-180975000D03*
D10*
X362585000Y-186055000D03*
X368935000Y-183515000D03*
D11*
X365125000Y-180975000D03*
D10*
X343535000Y-186055000D03*
X349885000Y-183515000D03*
D11*
X346075000Y-180975000D03*
D10*
X312578499Y-186055000D03*
X318928499Y-183515000D03*
D11*
X315118499Y-180975000D03*
D10*
X288766000Y-186055000D03*
X295116000Y-183515000D03*
D11*
X291306000Y-180975000D03*
D10*
X122078500Y-186055000D03*
X128428500Y-183515000D03*
D11*
X124618500Y-180975000D03*
D10*
X74453500Y-186055000D03*
X80803500Y-183515000D03*
D11*
X76993500Y-180975000D03*
D10*
X362585000Y-167005000D03*
X368935000Y-164465000D03*
D11*
X365125000Y-161925000D03*
D10*
X238760000Y-167005000D03*
X245110000Y-164465000D03*
D11*
X241300000Y-161925000D03*
D10*
X219710000Y-167005000D03*
X226060000Y-164465000D03*
D11*
X222250000Y-161925000D03*
D10*
X200660000Y-167005000D03*
X207010000Y-164465000D03*
D11*
X203200000Y-161925000D03*
D10*
X181610000Y-167005000D03*
X187960000Y-164465000D03*
D11*
X184150000Y-161925000D03*
D10*
X162560000Y-167005000D03*
X168910000Y-164465000D03*
D11*
X165100000Y-161925000D03*
D10*
X143510000Y-167005000D03*
X149860000Y-164465000D03*
D11*
X146050000Y-161925000D03*
D10*
X105410000Y-167005000D03*
X111760000Y-164465000D03*
D11*
X107950000Y-161925000D03*
D10*
X86360000Y-167005000D03*
X92710000Y-164465000D03*
D11*
X88900000Y-161925000D03*
D10*
X291147500Y-147955000D03*
X297497500Y-145415000D03*
D11*
X293687500Y-142875000D03*
D10*
X272097500Y-147955000D03*
X278447500Y-145415000D03*
D11*
X274637500Y-142875000D03*
D10*
X233997500Y-147955000D03*
X240347500Y-145415000D03*
D11*
X236537500Y-142875000D03*
D10*
X214947500Y-147955000D03*
X221297500Y-145415000D03*
D11*
X217487500Y-142875000D03*
D10*
X195897500Y-147955000D03*
X202247500Y-145415000D03*
D11*
X198437500Y-142875000D03*
D10*
X176847500Y-147955000D03*
X183197500Y-145415000D03*
D11*
X179387500Y-142875000D03*
D10*
X138747500Y-147955000D03*
X145097500Y-145415000D03*
D11*
X141287500Y-142875000D03*
D10*
X81597500Y-147955000D03*
X87947500Y-145415000D03*
D11*
X84137500Y-142875000D03*
D10*
X381635000Y-128905000D03*
X387985000Y-126365000D03*
D11*
X384175000Y-123825000D03*
D10*
X362585000Y-128905000D03*
X368935000Y-126365000D03*
D11*
X365125000Y-123825000D03*
D10*
X286385000Y-128905000D03*
X292735000Y-126365000D03*
D11*
X288925000Y-123825000D03*
D10*
X267335000Y-128905000D03*
X273685000Y-126365000D03*
D11*
X269875000Y-123825000D03*
D10*
X248285000Y-128905000D03*
X254635000Y-126365000D03*
D11*
X250825000Y-123825000D03*
D10*
X229235000Y-128905000D03*
X235585000Y-126365000D03*
D11*
X231775000Y-123825000D03*
D10*
X133985000Y-128905000D03*
X140335000Y-126365000D03*
D11*
X136525000Y-123825000D03*
D10*
X114935000Y-128905000D03*
X121285000Y-126365000D03*
D11*
X117475000Y-123825000D03*
D10*
X95885000Y-128905000D03*
X102235000Y-126365000D03*
D11*
X98425000Y-123825000D03*
D10*
X362585000Y-109855000D03*
X368935000Y-107315000D03*
D11*
X365125000Y-104775000D03*
D10*
X343535000Y-109855000D03*
X349885000Y-107315000D03*
D11*
X346075000Y-104775000D03*
D10*
X314960000Y-109855000D03*
X321310000Y-107315000D03*
D11*
X317500000Y-104775000D03*
D10*
X295910000Y-109855000D03*
X302260000Y-107315000D03*
D11*
X298450000Y-104775000D03*
D10*
X257810000Y-109855000D03*
X264160000Y-107315000D03*
D11*
X260350000Y-104775000D03*
D10*
X238760000Y-109855000D03*
X245110000Y-107315000D03*
D11*
X241300000Y-104775000D03*
D10*
X200660000Y-109855000D03*
X207010000Y-107315000D03*
D11*
X203200000Y-104775000D03*
D10*
X181610000Y-109855000D03*
X187960000Y-107315000D03*
D11*
X184150000Y-104775000D03*
D10*
X86360000Y-109855000D03*
X92710000Y-107315000D03*
D11*
X88900000Y-104775000D03*
D10*
X67310000Y-109855000D03*
X73660000Y-107315000D03*
D11*
X69850000Y-104775000D03*
D10*
X48260000Y-109855000D03*
X54610000Y-107315000D03*
D11*
X50800000Y-104775000D03*
D10*
X314960000Y-81280000D03*
X321310000Y-78740000D03*
D11*
X317500000Y-76200000D03*
D10*
X295910000Y-81280000D03*
X302260000Y-78740000D03*
D11*
X298450000Y-76200000D03*
D10*
X276860000Y-81280000D03*
X283210000Y-78740000D03*
D11*
X279400000Y-76200000D03*
D10*
X257810000Y-81280000D03*
X264160000Y-78740000D03*
D11*
X260350000Y-76200000D03*
D10*
X229235000Y-81280000D03*
X235585000Y-78740000D03*
D11*
X231775000Y-76200000D03*
D10*
X191135000Y-81280000D03*
X197485000Y-78740000D03*
D11*
X193675000Y-76200000D03*
D10*
X172085000Y-81280000D03*
X178435000Y-78740000D03*
D11*
X174625000Y-76200000D03*
D10*
X143510000Y-81280000D03*
X149860000Y-78740000D03*
D11*
X146050000Y-76200000D03*
D10*
X48260000Y-81280000D03*
X54610000Y-78740000D03*
D11*
X50800000Y-76200000D03*
D15*
X49530000Y-71120000D03*
D16*
X52070000Y-71120000D03*
D15*
X87630000Y-99695000D03*
D16*
X90170000Y-99695000D03*
D15*
X382905000Y-99695000D03*
D16*
X385445000Y-99695000D03*
D15*
X344805000Y-118745000D03*
D16*
X347345000Y-118745000D03*
X275907500Y-137795000D03*
D15*
X273367500Y-137795000D03*
X306705000Y-156845000D03*
D16*
X309245000Y-156845000D03*
X90170000Y-71120000D03*
D15*
X87630000Y-71120000D03*
D16*
X109220000Y-99695000D03*
D15*
X106680000Y-99695000D03*
D16*
X56833000Y-118745000D03*
D15*
X54293000Y-118745000D03*
D16*
X366395000Y-118745000D03*
D15*
X363855000Y-118745000D03*
X292417500Y-137795000D03*
D16*
X294957500Y-137795000D03*
X366395000Y-156845000D03*
D15*
X363855000Y-156845000D03*
X106680000Y-71120000D03*
D16*
X109220000Y-71120000D03*
D15*
X125730000Y-99695000D03*
D16*
X128270000Y-99695000D03*
D15*
X78105000Y-118745000D03*
D16*
X80645000Y-118745000D03*
D15*
X382905000Y-118745000D03*
D16*
X385445000Y-118745000D03*
X61595000Y-156845000D03*
D15*
X59055000Y-156845000D03*
X51911000Y-175895000D03*
D16*
X54451000Y-175895000D03*
X128270000Y-71120000D03*
D15*
X125730000Y-71120000D03*
D16*
X147320000Y-99695000D03*
D15*
X144780000Y-99695000D03*
D16*
X99695000Y-118745000D03*
D15*
X97155000Y-118745000D03*
D16*
X59214000Y-137795000D03*
D15*
X56674000Y-137795000D03*
X87630000Y-156845000D03*
D16*
X90170000Y-156845000D03*
X78263500Y-175895000D03*
D15*
X75723500Y-175895000D03*
X144780000Y-71120000D03*
D16*
X147320000Y-71120000D03*
D15*
X163830000Y-99695000D03*
D16*
X166370000Y-99695000D03*
D15*
X116205000Y-118745000D03*
D16*
X118745000Y-118745000D03*
D15*
X82867500Y-137795000D03*
D16*
X85407500Y-137795000D03*
X109220000Y-156845000D03*
D15*
X106680000Y-156845000D03*
X99536000Y-175895000D03*
D16*
X102076000Y-175895000D03*
X175895000Y-71120000D03*
D15*
X173355000Y-71120000D03*
D16*
X185420000Y-99695000D03*
D15*
X182880000Y-99695000D03*
D16*
X137795000Y-118745000D03*
D15*
X135255000Y-118745000D03*
D16*
X104457500Y-137795000D03*
D15*
X101917500Y-137795000D03*
D16*
X128270000Y-156845000D03*
D15*
X125730000Y-156845000D03*
D16*
X125888500Y-175895000D03*
D15*
X123348500Y-175895000D03*
D16*
X194945000Y-71120000D03*
D15*
X192405000Y-71120000D03*
X201930000Y-99695000D03*
D16*
X204470000Y-99695000D03*
D15*
X154305000Y-118745000D03*
D16*
X156845000Y-118745000D03*
D15*
X120967500Y-137795000D03*
D16*
X123507500Y-137795000D03*
D15*
X144780000Y-156845000D03*
D16*
X147320000Y-156845000D03*
D15*
X182880000Y-175895000D03*
D16*
X185420000Y-175895000D03*
D15*
X211455000Y-71120000D03*
D16*
X213995000Y-71120000D03*
X223520000Y-99695000D03*
D15*
X220980000Y-99695000D03*
D16*
X175895000Y-118745000D03*
D15*
X173355000Y-118745000D03*
D16*
X142557500Y-137795000D03*
D15*
X140017500Y-137795000D03*
D16*
X166370000Y-156845000D03*
D15*
X163830000Y-156845000D03*
D16*
X244951000Y-175895000D03*
D15*
X242411000Y-175895000D03*
D16*
X233045000Y-71120000D03*
D15*
X230505000Y-71120000D03*
X240030000Y-99695000D03*
D16*
X242570000Y-99695000D03*
D15*
X192405000Y-118745000D03*
D16*
X194945000Y-118745000D03*
D15*
X159067500Y-137795000D03*
D16*
X161607500Y-137795000D03*
D15*
X182880000Y-156845000D03*
D16*
X185420000Y-156845000D03*
X268763500Y-175895000D03*
D15*
X266223500Y-175895000D03*
X259080000Y-71120000D03*
D16*
X261620000Y-71120000D03*
X261620000Y-99695000D03*
D15*
X259080000Y-99695000D03*
D16*
X213995000Y-118745000D03*
D15*
X211455000Y-118745000D03*
D16*
X180657500Y-137795000D03*
D15*
X178117500Y-137795000D03*
D16*
X204470000Y-156845000D03*
D15*
X201930000Y-156845000D03*
X290036000Y-175895000D03*
D16*
X292576000Y-175895000D03*
X280670000Y-71120000D03*
D15*
X278130000Y-71120000D03*
X278130000Y-99695000D03*
D16*
X280670000Y-99695000D03*
D15*
X230505000Y-118745000D03*
D16*
X233045000Y-118745000D03*
D15*
X197167500Y-137795000D03*
D16*
X199707500Y-137795000D03*
D15*
X220980000Y-156845000D03*
D16*
X223520000Y-156845000D03*
D15*
X313848499Y-175895000D03*
D16*
X316388499Y-175895000D03*
D15*
X297180000Y-71120000D03*
D16*
X299720000Y-71120000D03*
X299720000Y-99695000D03*
D15*
X297180000Y-99695000D03*
D16*
X252095000Y-118745000D03*
D15*
X249555000Y-118745000D03*
D16*
X218757500Y-137795000D03*
D15*
X216217500Y-137795000D03*
X240030000Y-156845000D03*
D16*
X242570000Y-156845000D03*
X347345000Y-175895000D03*
D15*
X344805000Y-175895000D03*
D16*
X318770000Y-71120000D03*
D15*
X316230000Y-71120000D03*
X316230000Y-99695000D03*
D16*
X318770000Y-99695000D03*
D15*
X268605000Y-118745000D03*
D16*
X271145000Y-118745000D03*
D15*
X235267500Y-137795000D03*
D16*
X237807500Y-137795000D03*
D15*
X259080000Y-156845000D03*
D16*
X261620000Y-156845000D03*
D15*
X363855000Y-175895000D03*
D16*
X366395000Y-175895000D03*
D15*
X49530000Y-99695000D03*
D16*
X52070000Y-99695000D03*
X347345000Y-99695000D03*
D15*
X344805000Y-99695000D03*
D16*
X290195000Y-118745000D03*
D15*
X287655000Y-118745000D03*
D16*
X256857500Y-137795000D03*
D15*
X254317500Y-137795000D03*
D16*
X280670000Y-156845000D03*
D15*
X278130000Y-156845000D03*
D16*
X385445000Y-175895000D03*
D15*
X382905000Y-175895000D03*
D16*
X71120000Y-99695000D03*
D15*
X68580000Y-99695000D03*
X363855000Y-99695000D03*
D16*
X366395000Y-99695000D03*
D15*
X313848499Y-128270000D03*
D16*
X316388499Y-128270000D03*
D17*
X40640000Y-133350000D03*
X40640000Y-66040000D03*
X120650000Y-64770000D03*
X40640000Y-190500000D03*
X171450000Y-64770000D03*
X331470000Y-66040000D03*
X246380000Y-66040000D03*
X394335000Y-90170000D03*
X331470000Y-180975000D03*
X300990000Y-123825000D03*
X222250000Y-180975000D03*
X394335000Y-190500000D03*
X331470000Y-123825000D03*
X146050000Y-180975000D03*
X331470000Y-90170000D03*
M02*
