M48
; DRILL file {KiCad (5.1.10)-1} date 09/05/21 22:06:37
; FORMAT={-:-/ absolute / metric / decimal}
; #@! TF.CreationDate,2021-09-05T22:06:37+09:00
; #@! TF.GenerationSoftware,Kicad,Pcbnew,(5.1.10)-1
FMAT,2
METRIC
T1C0.400
T2C0.900
T3C1.020
T4C1.500
T5C3.500
T6C3.050
T7C4.000
%
G90
G05
T1
X45.72Y-119.38
X48.26Y-139.7
X48.26Y-157.48
X56.515Y-120.65
X59.69Y-111.125
X59.842Y-99.542
X60.96Y-94.615
X61.15Y-114.745
X61.747Y-181.762
X63.5Y-125.095
X63.5Y-132.715
X64.77Y-170.18
X65.405Y-134.62
X65.405Y-150.495
X65.405Y-156.845
X66.23Y-171.895
X77.025Y-171.895
X78.295Y-114.745
X80.835Y-171.895
X85.242Y-181.762
X88.9Y-113.03
X88.9Y-125.247
X88.9Y-131.445
X90.995Y-171.895
X92.71Y-120.65
X92.71Y-170.18
X93.345Y-94.615
X93.345Y-135.89
X93.345Y-148.68
X97.79Y-154.94
X98.425Y-91.44
X98.425Y-99.695
X99.06Y-113.03
X107.315Y-118.11
X107.315Y-130.81
X109.372Y-181.762
X111.76Y-170.18
X112.395Y-135.89
X112.395Y-148.68
X113.22Y-171.895
X113.665Y-91.44
X113.665Y-99.695
X116.84Y-154.94
X118.11Y-94.615
X121.73Y-114.745
X123.825Y-113.665
X123.825Y-130.81
X124.015Y-171.895
X128.905Y-135.89
X128.905Y-149.86
X129.54Y-113.755
X130.81Y-115.57
X130.81Y-118.745
X130.81Y-170.18
X132.08Y-115.57
X132.715Y-73.025
X132.715Y-118.745
X132.868Y-181.762
X133.985Y-139.7
X135.7Y-114.745
X135.89Y-154.94
X136.71Y-152.85
X139.7Y-132.715
X140.97Y-74.295
X140.97Y-83.82
X140.97Y-87.63
X140.97Y-99.06
X142.05Y-114.745
X142.24Y-120.65
X143.51Y-93.98
X143.51Y-97.155
X143.51Y-119.38
X144.145Y-130.81
X144.145Y-139.7
X144.78Y-95.885
X144.78Y-113.03
X145.6Y-152.85
X146.32Y-94.345
X147.32Y-120.65
X147.32Y-139.7
X148.59Y-146.685
X149.225Y-113.03
X149.86Y-158.75
X151.575Y-114.745
X151.765Y-111.76
X151.765Y-146.685
X152.4Y-166.37
X152.59Y-95.695
X154.94Y-158.75
X156.21Y-128.905
X156.21Y-143.51
X157.48Y-170.18
X157.797Y-154.623
X157.797Y-162.243
X158.115Y-102.235
X158.56Y-114.745
X159.385Y-158.75
X161.29Y-148.59
X161.38Y-113.03
X161.988Y-69.151
X162.11Y-152.85
X162.37Y-114.745
X162.56Y-172.085
X162.56Y-186.055
X164.65Y-152.85
X164.782Y-108.902
X165.735Y-71.755
X165.735Y-120.65
X165.798Y-69.151
X165.93Y-129.345
X166.688Y-176.213
X167.005Y-94.615
X167.005Y-117.475
X167.64Y-170.18
X168.43Y-149.38
X168.91Y-119.38
X168.91Y-158.75
X169.545Y-96.52
X169.545Y-179.07
X169.545Y-186.055
X171.45Y-154.305
X172.085Y-88.9
X172.72Y-112.395
X173.99Y-132.715
X173.99Y-158.75
X174.815Y-133.795
X175.26Y-96.52
X175.26Y-101.6
X177.165Y-83.185
X177.165Y-120.65
X177.165Y-190.5
X178.435Y-166.37
X178.625Y-133.795
X179.07Y-101.6
X180.975Y-101.6
X180.975Y-158.75
X181.61Y-183.515
X182.88Y-139.7
X183.705Y-114.745
X186.88Y-67.12
X189.23Y-139.7
X189.865Y-73.025
X190.5Y-190.5
X190.69Y-67.12
X190.817Y-181.292
X192.595Y-114.745
X193.04Y-101.6
X194.945Y-185.42
X195.58Y-158.75
X198.945Y-95.695
X199.39Y-101.6
X200.025Y-158.75
X201.93Y-190.5
X202.755Y-114.745
X202.755Y-133.795
X203.2Y-71.12
X207.835Y-133.795
X211.645Y-114.745
X212.725Y-97.79
X213.36Y-158.75
X214.63Y-101.6
X214.947Y-151.447
X216.535Y-175.895
X218.44Y-101.6
X219.075Y-158.75
X221.805Y-133.795
X223.075Y-114.745
X226.885Y-133.795
X228.6Y-94.615
X229.425Y-114.745
X232.41Y-158.75
X233.235Y-95.695
X236.22Y-190.5
X238.125Y-158.75
X239.585Y-95.695
X240.855Y-114.745
X240.855Y-133.795
X245.935Y-133.795
X246.38Y-92.71
X248.475Y-114.745
X253.555Y-95.695
X255.905Y-158.75
X257.81Y-181.61
X258.635Y-95.695
X258.635Y-133.795
X259.905Y-114.745
X262.89Y-158.75
X264.985Y-133.795
X267.235Y-172.82
X267.525Y-114.745
X268.605Y-90.805
X269.875Y-158.75
X272.605Y-95.695
X277.685Y-95.695
X278.13Y-120.65
X278.32Y-114.745
X278.955Y-133.795
X280.67Y-158.75
X285.75Y-120.65
X286.575Y-133.795
X287.12Y-172.82
X287.845Y-114.745
X288.925Y-90.17
X288.925Y-107.95
X291.655Y-95.695
X293.37Y-158.75
X296.545Y-122.555
X296.735Y-95.695
X299.72Y-169.545
X303.53Y-113.03
X306.55Y-111.28
X306.705Y-118.11
X307.53Y-114.745
X307.975Y-87.63
X307.975Y-107.95
X309.245Y-177.8
X309.435Y-95.695
X310.515Y-172.72
X315.785Y-95.695
X316.23Y-116.205
X318.135Y-166.37
X319.25Y-111.28
X320.675Y-118.11
X321.5Y-114.745
X323.215Y-168.275
X325.12Y-86.995
X325.755Y-113.03
X326.39Y-101.6
X326.39Y-177.8
X333.565Y-171.895
X334.01Y-101.6
X342.265Y-113.03
X345.63Y-171.895
X347.98Y-101.6
X349.885Y-123.19
X351.345Y-114.745
X351.79Y-169.545
X353.06Y-179.705
X355.6Y-173.355
X356.235Y-158.75
X357.695Y-114.745
X358.775Y-179.705
X359.41Y-101.6
X368.3Y-101.6
X368.49Y-171.895
X369.125Y-114.745
X379.285Y-114.745
X379.73Y-101.6
X384.365Y-171.895
T2
X49.53Y-71.12
X49.53Y-99.695
X51.911Y-175.895
X52.07Y-71.12
X52.07Y-99.695
X54.293Y-118.745
X54.451Y-175.895
X56.674Y-137.795
X56.833Y-118.745
X59.055Y-156.845
X59.214Y-137.795
X61.595Y-156.845
X68.58Y-99.695
X71.12Y-99.695
X75.724Y-175.895
X78.105Y-118.745
X78.263Y-175.895
X80.645Y-118.745
X82.867Y-137.795
X85.407Y-137.795
X87.63Y-71.12
X87.63Y-99.695
X87.63Y-156.845
X90.17Y-71.12
X90.17Y-99.695
X90.17Y-156.845
X97.155Y-118.745
X99.536Y-175.895
X99.695Y-118.745
X101.917Y-137.795
X102.076Y-175.895
X104.457Y-137.795
X106.68Y-71.12
X106.68Y-99.695
X106.68Y-156.845
X109.22Y-71.12
X109.22Y-99.695
X109.22Y-156.845
X116.205Y-118.745
X118.745Y-118.745
X120.968Y-137.795
X123.349Y-175.895
X123.507Y-137.795
X125.73Y-71.12
X125.73Y-99.695
X125.73Y-156.845
X125.888Y-175.895
X128.27Y-71.12
X128.27Y-99.695
X128.27Y-156.845
X135.255Y-118.745
X137.795Y-118.745
X140.017Y-137.795
X142.558Y-137.795
X144.78Y-71.12
X144.78Y-99.695
X144.78Y-156.845
X147.32Y-71.12
X147.32Y-99.695
X147.32Y-156.845
X154.305Y-118.745
X156.845Y-118.745
X159.067Y-137.795
X161.607Y-137.795
X163.83Y-99.695
X163.83Y-156.845
X166.37Y-99.695
X166.37Y-156.845
X173.355Y-71.12
X173.355Y-118.745
X175.895Y-71.12
X175.895Y-118.745
X178.117Y-137.795
X180.657Y-137.795
X182.88Y-99.695
X182.88Y-156.845
X182.88Y-175.895
X185.42Y-99.695
X185.42Y-156.845
X185.42Y-175.895
X192.405Y-71.12
X192.405Y-118.745
X194.945Y-71.12
X194.945Y-118.745
X197.167Y-137.795
X199.707Y-137.795
X201.93Y-99.695
X201.93Y-156.845
X204.47Y-99.695
X204.47Y-156.845
X211.455Y-71.12
X211.455Y-118.745
X213.995Y-71.12
X213.995Y-118.745
X216.218Y-137.795
X218.757Y-137.795
X220.98Y-99.695
X220.98Y-156.845
X223.52Y-99.695
X223.52Y-156.845
X230.505Y-71.12
X230.505Y-118.745
X233.045Y-71.12
X233.045Y-118.745
X235.267Y-137.795
X237.807Y-137.795
X240.03Y-99.695
X240.03Y-156.845
X242.411Y-175.895
X242.57Y-99.695
X242.57Y-156.845
X244.951Y-175.895
X249.555Y-118.745
X252.095Y-118.745
X254.317Y-137.795
X256.858Y-137.795
X259.08Y-71.12
X259.08Y-99.695
X259.08Y-156.845
X261.62Y-71.12
X261.62Y-99.695
X261.62Y-156.845
X266.224Y-175.895
X268.605Y-118.745
X268.763Y-175.895
X271.145Y-118.745
X273.368Y-137.795
X275.907Y-137.795
X278.13Y-71.12
X278.13Y-99.695
X278.13Y-156.845
X280.67Y-71.12
X280.67Y-99.695
X280.67Y-156.845
X287.655Y-118.745
X290.036Y-175.895
X290.195Y-118.745
X292.417Y-137.795
X292.576Y-175.895
X294.957Y-137.795
X297.18Y-71.12
X297.18Y-99.695
X299.72Y-71.12
X299.72Y-99.695
X306.705Y-156.845
X309.245Y-156.845
X313.848Y-128.27
X313.848Y-175.895
X316.23Y-71.12
X316.23Y-99.695
X316.388Y-128.27
X316.388Y-175.895
X318.77Y-71.12
X318.77Y-99.695
X344.805Y-99.695
X344.805Y-118.745
X344.805Y-175.895
X347.345Y-99.695
X347.345Y-118.745
X347.345Y-175.895
X363.855Y-99.695
X363.855Y-118.745
X363.855Y-156.845
X363.855Y-175.895
X366.395Y-99.695
X366.395Y-118.745
X366.395Y-156.845
X366.395Y-175.895
X382.905Y-99.695
X382.905Y-118.745
X382.905Y-175.895
X385.445Y-99.695
X385.445Y-118.745
X385.445Y-175.895
T3
X137.096Y-61.531
X137.096Y-64.072
X137.096Y-66.611
X137.096Y-69.151
X137.096Y-71.691
X137.096Y-74.231
X137.096Y-76.772
X137.096Y-79.311
X137.096Y-81.852
X137.096Y-84.391
X137.096Y-86.931
X137.096Y-89.471
X137.096Y-92.011
X137.096Y-94.551
X137.096Y-97.091
X137.096Y-99.631
X137.096Y-102.171
X137.096Y-104.712
X137.096Y-107.251
X137.096Y-109.791
X154.876Y-61.531
X154.876Y-64.072
X154.876Y-66.611
X154.876Y-69.151
X154.876Y-71.691
X154.876Y-74.231
X154.876Y-76.772
X154.876Y-79.311
X154.876Y-81.852
X154.876Y-84.391
X154.876Y-86.931
X154.876Y-89.471
X154.876Y-92.011
X154.876Y-94.551
X154.876Y-97.091
X154.876Y-99.631
X154.876Y-102.171
X154.876Y-104.712
X154.876Y-107.251
X154.876Y-109.791
T4
X48.26Y-81.28
X48.26Y-109.855
X50.641Y-186.055
X53.023Y-128.905
X54.61Y-78.74
X54.61Y-107.315
X55.404Y-147.955
X56.991Y-183.515
X57.785Y-167.005
X59.373Y-126.365
X61.754Y-145.415
X64.135Y-164.465
X67.31Y-109.855
X73.66Y-107.315
X74.453Y-186.055
X76.835Y-128.905
X80.803Y-183.515
X81.597Y-147.955
X83.185Y-126.365
X86.36Y-81.28
X86.36Y-109.855
X86.36Y-167.005
X87.947Y-145.415
X92.71Y-78.74
X92.71Y-107.315
X92.71Y-164.465
X95.885Y-128.905
X98.266Y-186.055
X100.647Y-147.955
X102.235Y-126.365
X104.616Y-183.515
X105.41Y-81.28
X105.41Y-109.855
X105.41Y-167.005
X106.997Y-145.415
X111.76Y-78.74
X111.76Y-107.315
X111.76Y-164.465
X114.935Y-128.905
X119.697Y-147.955
X121.285Y-126.365
X122.078Y-186.055
X124.46Y-81.28
X124.46Y-109.855
X124.46Y-167.005
X126.047Y-145.415
X128.428Y-183.515
X130.81Y-78.74
X130.81Y-107.315
X130.81Y-164.465
X133.985Y-128.905
X138.748Y-147.955
X140.335Y-126.365
X143.51Y-81.28
X143.51Y-109.855
X143.51Y-167.005
X145.097Y-145.415
X149.86Y-78.74
X149.86Y-107.315
X149.86Y-164.465
X153.035Y-128.905
X157.797Y-147.955
X159.385Y-126.365
X162.56Y-109.855
X162.56Y-167.005
X164.147Y-145.415
X168.91Y-107.315
X168.91Y-164.465
X172.085Y-81.28
X172.085Y-128.905
X176.847Y-147.955
X178.435Y-78.74
X178.435Y-126.365
X181.61Y-109.855
X181.61Y-167.005
X181.61Y-186.055
X183.197Y-145.415
X187.96Y-107.315
X187.96Y-164.465
X187.96Y-183.515
X191.135Y-81.28
X191.135Y-128.905
X195.897Y-147.955
X197.485Y-78.74
X197.485Y-126.365
X200.66Y-109.855
X200.66Y-167.005
X202.248Y-145.415
X207.01Y-107.315
X207.01Y-164.465
X210.185Y-81.28
X210.185Y-128.905
X214.947Y-147.955
X216.535Y-78.74
X216.535Y-126.365
X219.71Y-109.855
X219.71Y-167.005
X221.297Y-145.415
X226.06Y-107.315
X226.06Y-164.465
X229.235Y-81.28
X229.235Y-128.905
X233.998Y-147.955
X235.585Y-78.74
X235.585Y-126.365
X238.76Y-109.855
X238.76Y-167.005
X240.347Y-145.415
X241.141Y-186.055
X245.11Y-107.315
X245.11Y-164.465
X247.491Y-183.515
X248.285Y-128.905
X253.047Y-147.955
X254.635Y-126.365
X257.81Y-81.28
X257.81Y-109.855
X257.81Y-167.005
X259.397Y-145.415
X264.16Y-78.74
X264.16Y-107.315
X264.16Y-164.465
X264.953Y-186.055
X267.335Y-128.905
X271.303Y-183.515
X272.097Y-147.955
X273.685Y-126.365
X276.86Y-81.28
X276.86Y-109.855
X276.86Y-167.005
X278.447Y-145.415
X283.21Y-78.74
X283.21Y-107.315
X283.21Y-164.465
X286.385Y-128.905
X288.766Y-186.055
X291.147Y-147.955
X292.735Y-126.365
X295.116Y-183.515
X295.91Y-81.28
X295.91Y-109.855
X297.498Y-145.415
X302.26Y-78.74
X302.26Y-107.315
X305.435Y-167.005
X311.785Y-164.465
X312.578Y-138.43
X312.578Y-186.055
X314.96Y-81.28
X314.96Y-109.855
X318.928Y-135.89
X318.928Y-183.515
X321.31Y-78.74
X321.31Y-107.315
X343.535Y-109.855
X343.535Y-128.905
X343.535Y-186.055
X349.885Y-107.315
X349.885Y-126.365
X349.885Y-183.515
X362.585Y-109.855
X362.585Y-128.905
X362.585Y-167.005
X362.585Y-186.055
X368.935Y-107.315
X368.935Y-126.365
X368.935Y-164.465
X368.935Y-183.515
X381.635Y-109.855
X381.635Y-128.905
X381.635Y-186.055
X387.985Y-107.315
X387.985Y-126.365
X387.985Y-183.515
T5
X40.64Y-66.04
X40.64Y-133.35
X40.64Y-190.5
X120.65Y-64.77
X146.05Y-180.34
X171.45Y-64.77
X222.25Y-180.34
X246.38Y-66.04
X300.99Y-130.81
X327.66Y-66.04
X331.47Y-130.81
X331.47Y-180.34
X334.01Y-88.9
X393.7Y-95.25
X393.7Y-190.5
T6
X158.75Y-187.975
X172.25Y-187.975
X196.05Y-187.975
X209.55Y-187.975
X322.118Y-121.45
X322.118Y-145.25
T7
X50.8Y-76.2
X50.8Y-104.775
X53.181Y-180.975
X55.563Y-123.825
X57.944Y-142.875
X60.325Y-161.925
X69.85Y-104.775
X76.993Y-180.975
X79.375Y-123.825
X84.138Y-142.875
X88.9Y-76.2
X88.9Y-104.775
X88.9Y-161.925
X98.425Y-123.825
X100.806Y-180.975
X103.188Y-142.875
X107.95Y-76.2
X107.95Y-104.775
X107.95Y-161.925
X117.475Y-123.825
X122.237Y-142.875
X124.618Y-180.975
X127.0Y-76.2
X127.0Y-104.775
X127.0Y-161.925
X136.525Y-123.825
X141.287Y-142.875
X146.05Y-76.2
X146.05Y-104.775
X146.05Y-161.925
X155.575Y-123.825
X158.75Y-172.735
X160.338Y-142.875
X165.1Y-104.775
X165.1Y-161.925
X172.25Y-172.735
X174.625Y-76.2
X174.625Y-123.825
X179.387Y-142.875
X184.15Y-104.775
X184.15Y-161.925
X184.15Y-180.975
X193.675Y-76.2
X193.675Y-123.825
X196.05Y-172.735
X198.438Y-142.875
X203.2Y-104.775
X203.2Y-161.925
X209.55Y-172.735
X212.725Y-76.2
X212.725Y-123.825
X217.487Y-142.875
X222.25Y-104.775
X222.25Y-161.925
X231.775Y-76.2
X231.775Y-123.825
X236.537Y-142.875
X241.3Y-104.775
X241.3Y-161.925
X243.681Y-180.975
X250.825Y-123.825
X255.587Y-142.875
X260.35Y-76.2
X260.35Y-104.775
X260.35Y-161.925
X267.493Y-180.975
X269.875Y-123.825
X274.637Y-142.875
X279.4Y-76.2
X279.4Y-104.775
X279.4Y-161.925
X288.925Y-123.825
X291.306Y-180.975
X293.688Y-142.875
X298.45Y-76.2
X298.45Y-104.775
X306.878Y-121.45
X306.878Y-145.25
X307.975Y-161.925
X315.118Y-133.35
X315.118Y-180.975
X317.5Y-76.2
X317.5Y-104.775
X346.075Y-104.775
X346.075Y-123.825
X346.075Y-180.975
X365.125Y-104.775
X365.125Y-123.825
X365.125Y-161.925
X365.125Y-180.975
X384.175Y-104.775
X384.175Y-123.825
X384.175Y-180.975
T0
M30
