M48
; DRILL file {KiCad (5.1.10)-1} date 09/14/21 17:57:47
; FORMAT={-:-/ absolute / metric / decimal}
; #@! TF.CreationDate,2021-09-14T17:57:47+09:00
; #@! TF.GenerationSoftware,Kicad,Pcbnew,(5.1.10)-1
FMAT,2
METRIC
T1C0.400
T2C0.900
T3C1.020
T4C1.500
T5C3.500
T6C3.050
T7C4.000
%
G90
G05
T1
X45.72Y-119.38
X46.99Y-158.115
X46.99Y-183.515
X48.26Y-139.7
X48.26Y-157.48
X48.895Y-156.21
X49.53Y-176.53
X50.038Y-101.854
X50.292Y-97.282
X50.8Y-115.824
X52.705Y-173.355
X52.705Y-188.595
X54.864Y-116.332
X56.515Y-120.65
X56.642Y-108.204
X57.15Y-175.895
X57.658Y-135.382
X58.42Y-116.205
X59.69Y-111.125
X59.842Y-99.542
X60.706Y-154.432
X60.96Y-94.615
X61.468Y-127.762
X61.747Y-181.762
X62.484Y-135.128
X63.5Y-125.095
X63.5Y-132.715
X64.008Y-146.812
X64.135Y-187.96
X64.77Y-170.18
X65.405Y-134.62
X65.405Y-150.495
X65.405Y-156.845
X69.342Y-97.282
X75.565Y-118.745
X76.835Y-173.355
X78.105Y-116.205
X81.28Y-175.895
X82.169Y-117.348
X83.312Y-135.382
X83.82Y-187.96
X85.242Y-181.762
X86.487Y-127.762
X87.376Y-113.411
X88.265Y-68.58
X88.392Y-97.282
X88.646Y-154.432
X88.9Y-113.03
X88.9Y-125.247
X88.9Y-131.445
X92.71Y-120.65
X92.71Y-120.65
X92.71Y-170.18
X93.345Y-135.89
X93.345Y-148.68
X94.679Y-95.695
X94.869Y-107.315
X95.758Y-149.225
X97.282Y-108.204
X97.282Y-116.332
X97.663Y-113.411
X97.79Y-154.94
X99.06Y-113.03
X99.695Y-173.355
X100.267Y-95.695
X102.87Y-135.382
X104.14Y-188.595
X105.156Y-127.762
X105.41Y-175.895
X107.315Y-68.58
X107.315Y-118.11
X107.315Y-130.81
X107.442Y-97.282
X107.696Y-154.432
X109.372Y-181.762
X111.506Y-97.282
X111.76Y-170.18
X112.077Y-95.695
X112.395Y-135.89
X112.395Y-148.68
X114.808Y-149.225
X115.507Y-95.695
X116.84Y-154.94
X117.094Y-116.332
X119.761Y-70.993
X121.158Y-135.382
X121.73Y-114.745
X123.19Y-173.355
X123.825Y-113.665
X123.825Y-130.81
X125.222Y-115.824
X126.365Y-68.58
X126.492Y-97.282
X126.492Y-110.617
X126.746Y-154.432
X128.905Y-135.89
X128.905Y-149.86
X129.54Y-113.755
X129.54Y-115.824
X130.175Y-188.595
X130.81Y-170.18
X132.868Y-181.762
X133.985Y-139.7
X135.255Y-62.865
X135.255Y-95.885
X135.255Y-100.965
X135.255Y-111.76
X135.7Y-114.745
X135.89Y-154.94
X136.144Y-116.586
X138.938Y-74.168
X138.938Y-103.759
X139.065Y-62.865
X139.51Y-114.745
X139.7Y-71.755
X139.7Y-132.715
X139.954Y-135.382
X140.97Y-83.82
X140.97Y-87.63
X142.875Y-72.39
X144.145Y-130.81
X144.78Y-101.854
X144.78Y-111.76
X145.415Y-68.58
X145.415Y-137.795
X145.796Y-154.432
X146.304Y-98.044
X146.812Y-95.504
X146.812Y-146.558
X148.463Y-96.266
X148.59Y-60.96
X148.59Y-146.685
X148.844Y-98.552
X149.86Y-158.75
X149.923Y-114.745
X150.368Y-111.76
X150.495Y-128.27
X151.13Y-62.865
X151.13Y-166.116
X151.257Y-73.279
X151.765Y-111.76
X151.765Y-146.685
X152.4Y-126.746
X152.4Y-166.37
X152.59Y-95.695
X152.908Y-144.78
X153.035Y-62.865
X153.035Y-98.425
X153.416Y-72.898
X153.416Y-111.76
X154.94Y-142.24
X154.94Y-187.96
X155.194Y-116.332
X156.21Y-128.905
X156.845Y-60.96
X156.845Y-62.865
X156.845Y-70.485
X156.845Y-73.025
X156.845Y-75.565
X156.845Y-83.185
X156.845Y-85.725
X156.845Y-88.265
X156.845Y-108.585
X156.845Y-145.415
X157.48Y-170.18
X158.115Y-108.585
X158.496Y-116.332
X158.56Y-114.745
X158.75Y-111.76
X159.004Y-135.382
X160.02Y-149.225
X160.02Y-162.56
X160.655Y-97.155
X161.925Y-111.76
X161.925Y-116.205
X161.925Y-187.96
X162.56Y-102.87
X163.322Y-129.286
X163.83Y-97.79
X163.83Y-101.6
X163.83Y-111.76
X164.465Y-116.205
X164.465Y-137.795
X164.846Y-154.432
X165.1Y-111.125
X165.735Y-107.95
X165.735Y-111.76
X165.93Y-129.345
X166.37Y-93.218
X167.005Y-94.615
X167.005Y-108.585
X167.386Y-129.032
X167.64Y-170.18
X167.894Y-97.028
X168.43Y-149.38
X168.91Y-99.695
X168.91Y-128.905
X168.91Y-156.845
X169.545Y-96.52
X169.545Y-117.475
X169.545Y-187.96
X170.18Y-128.905
X170.815Y-112.005
X171.45Y-71.12
X171.45Y-75.565
X172.085Y-74.295
X172.085Y-88.9
X172.72Y-146.685
X172.72Y-166.37
X173.2Y-168.43
X173.8Y-114.745
X173.99Y-132.715
X174.625Y-79.375
X174.879Y-116.459
X175.26Y-96.52
X175.26Y-187.96
X175.895Y-83.82
X176.022Y-167.386
X176.53Y-180.975
X177.165Y-74.295
X177.165Y-120.65
X177.165Y-170.815
X177.8Y-69.85
X177.8Y-82.55
X177.8Y-118.237
X178.054Y-135.382
X178.435Y-166.37
X178.435Y-176.53
X178.689Y-159.893
X179.07Y-179.07
X179.07Y-184.15
X179.578Y-167.386
X180.34Y-119.38
X180.975Y-71.755
X180.975Y-101.6
X182.88Y-97.79
X182.88Y-154.305
X183.515Y-137.795
X183.642Y-173.482
X186.69Y-142.875
X187.96Y-99.695
X187.96Y-156.845
X187.96Y-175.26
X188.722Y-131.445
X189.23Y-82.296
X189.865Y-69.85
X189.865Y-73.025
X189.865Y-186.055
X190.817Y-181.292
X192.405Y-116.205
X193.04Y-185.42
X197.104Y-135.382
X197.485Y-118.745
X198.945Y-95.695
X201.93Y-97.79
X202.565Y-137.795
X202.692Y-154.432
X203.2Y-71.12
X206.756Y-187.452
X206.756Y-189.23
X207.01Y-99.695
X207.01Y-156.845
X208.28Y-82.296
X211.455Y-116.205
X211.836Y-189.23
X212.09Y-68.834
X212.725Y-97.79
X214.947Y-151.447
X216.154Y-135.382
X216.535Y-118.745
X220.98Y-97.155
X221.615Y-137.795
X221.615Y-170.815
X221.996Y-154.305
X226.06Y-99.695
X226.06Y-156.845
X228.6Y-94.615
X230.505Y-94.615
X230.505Y-116.205
X230.886Y-68.834
X235.204Y-135.382
X235.585Y-118.745
X238.76Y-169.545
X240.03Y-97.155
X240.03Y-154.305
X240.665Y-137.795
X242.57Y-173.355
X245.11Y-99.695
X245.11Y-156.845
X246.38Y-92.71
X248.666Y-173.228
X249.555Y-116.205
X250.19Y-94.615
X254.254Y-135.382
X254.254Y-173.482
X254.635Y-118.745
X256.54Y-172.212
X257.81Y-173.99
X258.826Y-177.292
X259.08Y-97.155
X259.08Y-154.305
X259.588Y-68.58
X259.715Y-137.795
X262.763Y-167.259
X264.16Y-99.695
X264.16Y-156.845
X265.684Y-172.974
X267.335Y-186.055
X268.605Y-90.805
X268.605Y-116.205
X273.304Y-135.382
X273.685Y-118.745
X274.32Y-176.53
X278.13Y-97.155
X278.13Y-154.305
X278.13Y-154.305
X278.638Y-68.58
X278.765Y-137.795
X281.305Y-173.99
X283.21Y-99.695
X283.21Y-156.845
X284.48Y-186.055
X287.274Y-135.382
X287.655Y-116.205
X288.29Y-109.982
X288.925Y-90.17
X288.925Y-107.95
X288.925Y-188.595
X290.195Y-137.795
X292.735Y-118.745
X294.894Y-113.03
X294.894Y-129.032
X296.545Y-128.905
X297.18Y-97.155
X297.942Y-68.834
X298.45Y-115.57
X299.72Y-169.545
X302.26Y-99.695
X303.53Y-113.03
X304.038Y-120.396
X304.8Y-115.57
X306.705Y-154.305
X307.975Y-85.09
X307.975Y-87.63
X308.61Y-119.126
X312.42Y-118.11
X312.42Y-188.595
X314.325Y-184.15
X314.96Y-126.365
X316.23Y-97.155
X316.992Y-68.834
X317.5Y-179.07
X320.04Y-74.295
X320.675Y-118.11
X325.12Y-86.995
X328.168Y-93.218
X333.375Y-104.14
X333.375Y-176.53
X334.645Y-173.355
X337.82Y-175.895
X338.836Y-111.887
X339.28Y-114.745
X339.852Y-127.0
X340.995Y-95.25
X341.63Y-182.88
X342.265Y-175.895
X344.805Y-173.355
X345.44Y-97.79
X345.694Y-115.824
X345.694Y-116.84
X346.71Y-130.175
X349.25Y-173.355
X349.25Y-176.53
X349.885Y-99.695
X349.885Y-123.19
X350.012Y-113.538
X351.79Y-118.745
X351.79Y-169.545
X352.044Y-127.0
X352.425Y-186.055
X353.06Y-179.705
X354.584Y-169.926
X355.6Y-173.355
X356.235Y-158.75
X356.235Y-186.055
X358.775Y-179.705
X360.68Y-165.735
X362.585Y-173.355
X363.855Y-116.205
X364.49Y-97.79
X368.3Y-154.432
X368.935Y-99.695
X368.935Y-118.745
X369.57Y-173.355
X369.57Y-175.895
X379.73Y-118.745
X379.73Y-175.895
X382.778Y-120.904
X382.778Y-126.492
X382.905Y-97.79
X382.905Y-116.205
X382.905Y-173.355
X383.54Y-154.94
X384.302Y-170.18
X387.35Y-99.06
X390.144Y-185.42
T2
X49.53Y-71.12
X49.53Y-99.695
X51.911Y-175.895
X52.07Y-71.12
X52.07Y-99.695
X54.293Y-118.745
X54.451Y-175.895
X56.674Y-137.795
X56.833Y-118.745
X59.055Y-156.845
X59.214Y-137.795
X61.595Y-156.845
X68.58Y-99.695
X71.12Y-99.695
X75.724Y-175.895
X78.105Y-118.745
X78.263Y-175.895
X80.645Y-118.745
X82.867Y-137.795
X85.407Y-137.795
X87.63Y-71.12
X87.63Y-99.695
X87.63Y-156.845
X90.17Y-71.12
X90.17Y-99.695
X90.17Y-156.845
X97.155Y-118.745
X99.536Y-175.895
X99.695Y-118.745
X101.917Y-137.795
X102.076Y-175.895
X104.457Y-137.795
X106.68Y-71.12
X106.68Y-99.695
X106.68Y-156.845
X109.22Y-71.12
X109.22Y-99.695
X109.22Y-156.845
X116.205Y-118.745
X118.745Y-118.745
X120.968Y-137.795
X123.349Y-175.895
X123.507Y-137.795
X125.73Y-71.12
X125.73Y-99.695
X125.73Y-156.845
X125.888Y-175.895
X128.27Y-71.12
X128.27Y-99.695
X128.27Y-156.845
X135.255Y-118.745
X137.795Y-118.745
X140.017Y-137.795
X142.558Y-137.795
X144.78Y-71.12
X144.78Y-99.695
X144.78Y-156.845
X147.32Y-71.12
X147.32Y-99.695
X147.32Y-156.845
X154.305Y-118.745
X156.845Y-118.745
X159.067Y-137.795
X161.607Y-137.795
X163.83Y-99.695
X163.83Y-156.845
X166.37Y-99.695
X166.37Y-156.845
X173.355Y-71.12
X173.355Y-118.745
X175.895Y-71.12
X175.895Y-118.745
X178.117Y-137.795
X180.657Y-137.795
X182.88Y-99.695
X182.88Y-156.845
X182.88Y-175.895
X185.42Y-99.695
X185.42Y-156.845
X185.42Y-175.895
X192.405Y-71.12
X192.405Y-118.745
X194.945Y-71.12
X194.945Y-118.745
X197.167Y-137.795
X199.707Y-137.795
X201.93Y-99.695
X201.93Y-156.845
X204.47Y-99.695
X204.47Y-156.845
X211.455Y-71.12
X211.455Y-118.745
X213.995Y-71.12
X213.995Y-118.745
X216.218Y-137.795
X218.757Y-137.795
X220.98Y-99.695
X220.98Y-156.845
X223.52Y-99.695
X223.52Y-156.845
X230.505Y-71.12
X230.505Y-118.745
X233.045Y-71.12
X233.045Y-118.745
X235.267Y-137.795
X237.807Y-137.795
X240.03Y-99.695
X240.03Y-156.845
X242.411Y-175.895
X242.57Y-99.695
X242.57Y-156.845
X244.951Y-175.895
X249.555Y-118.745
X252.095Y-118.745
X254.317Y-137.795
X256.858Y-137.795
X259.08Y-71.12
X259.08Y-99.695
X259.08Y-156.845
X261.62Y-71.12
X261.62Y-99.695
X261.62Y-156.845
X266.224Y-175.895
X268.605Y-118.745
X268.763Y-175.895
X271.145Y-118.745
X273.368Y-137.795
X275.907Y-137.795
X278.13Y-71.12
X278.13Y-99.695
X278.13Y-156.845
X280.67Y-71.12
X280.67Y-99.695
X280.67Y-156.845
X287.655Y-118.745
X290.036Y-175.895
X290.195Y-118.745
X292.417Y-137.795
X292.576Y-175.895
X294.957Y-137.795
X297.18Y-71.12
X297.18Y-99.695
X299.72Y-71.12
X299.72Y-99.695
X306.705Y-156.845
X309.245Y-156.845
X313.848Y-128.27
X313.848Y-175.895
X316.23Y-71.12
X316.23Y-99.695
X316.388Y-128.27
X316.388Y-175.895
X318.77Y-71.12
X318.77Y-99.695
X344.805Y-99.695
X344.805Y-118.745
X344.805Y-175.895
X347.345Y-99.695
X347.345Y-118.745
X347.345Y-175.895
X363.855Y-99.695
X363.855Y-118.745
X363.855Y-156.845
X363.855Y-175.895
X366.395Y-99.695
X366.395Y-118.745
X366.395Y-156.845
X366.395Y-175.895
X382.905Y-99.695
X382.905Y-118.745
X382.905Y-175.895
X385.445Y-99.695
X385.445Y-118.745
X385.445Y-175.895
T3
X137.096Y-61.531
X137.096Y-64.072
X137.096Y-66.611
X137.096Y-69.151
X137.096Y-71.691
X137.096Y-74.231
X137.096Y-76.772
X137.096Y-79.311
X137.096Y-81.852
X137.096Y-84.391
X137.096Y-86.931
X137.096Y-89.471
X137.096Y-92.011
X137.096Y-94.551
X137.096Y-97.091
X137.096Y-99.631
X137.096Y-102.171
X137.096Y-104.712
X137.096Y-107.251
X137.096Y-109.791
X154.876Y-61.531
X154.876Y-64.072
X154.876Y-66.611
X154.876Y-69.151
X154.876Y-71.691
X154.876Y-74.231
X154.876Y-76.772
X154.876Y-79.311
X154.876Y-81.852
X154.876Y-84.391
X154.876Y-86.931
X154.876Y-89.471
X154.876Y-92.011
X154.876Y-94.551
X154.876Y-97.091
X154.876Y-99.631
X154.876Y-102.171
X154.876Y-104.712
X154.876Y-107.251
X154.876Y-109.791
T4
X48.26Y-81.28
X48.26Y-109.855
X50.641Y-186.055
X53.023Y-128.905
X54.61Y-78.74
X54.61Y-107.315
X55.404Y-147.955
X56.991Y-183.515
X57.785Y-167.005
X59.373Y-126.365
X61.754Y-145.415
X64.135Y-164.465
X67.31Y-109.855
X73.66Y-107.315
X74.453Y-186.055
X76.835Y-128.905
X80.803Y-183.515
X81.597Y-147.955
X83.185Y-126.365
X86.36Y-81.28
X86.36Y-109.855
X86.36Y-167.005
X87.947Y-145.415
X92.71Y-78.74
X92.71Y-107.315
X92.71Y-164.465
X95.885Y-128.905
X98.266Y-186.055
X100.647Y-147.955
X102.235Y-126.365
X104.616Y-183.515
X105.41Y-81.28
X105.41Y-109.855
X105.41Y-167.005
X106.997Y-145.415
X111.76Y-78.74
X111.76Y-107.315
X111.76Y-164.465
X114.935Y-128.905
X119.697Y-147.955
X121.285Y-126.365
X122.078Y-186.055
X124.46Y-81.28
X124.46Y-109.855
X124.46Y-167.005
X126.047Y-145.415
X128.428Y-183.515
X130.81Y-78.74
X130.81Y-107.315
X130.81Y-164.465
X133.985Y-128.905
X138.748Y-147.955
X140.335Y-126.365
X143.51Y-81.28
X143.51Y-109.855
X143.51Y-167.005
X145.097Y-145.415
X149.86Y-78.74
X149.86Y-107.315
X149.86Y-164.465
X153.035Y-128.905
X157.797Y-147.955
X159.385Y-126.365
X162.56Y-109.855
X162.56Y-167.005
X164.147Y-145.415
X168.91Y-107.315
X168.91Y-164.465
X172.085Y-81.28
X172.085Y-128.905
X176.847Y-147.955
X178.435Y-78.74
X178.435Y-126.365
X181.61Y-109.855
X181.61Y-167.005
X181.61Y-186.055
X183.197Y-145.415
X187.96Y-107.315
X187.96Y-164.465
X187.96Y-183.515
X191.135Y-81.28
X191.135Y-128.905
X195.897Y-147.955
X197.485Y-78.74
X197.485Y-126.365
X200.66Y-109.855
X200.66Y-167.005
X202.248Y-145.415
X207.01Y-107.315
X207.01Y-164.465
X210.185Y-81.28
X210.185Y-128.905
X214.947Y-147.955
X216.535Y-78.74
X216.535Y-126.365
X219.71Y-109.855
X219.71Y-167.005
X221.297Y-145.415
X226.06Y-107.315
X226.06Y-164.465
X229.235Y-81.28
X229.235Y-128.905
X233.998Y-147.955
X235.585Y-78.74
X235.585Y-126.365
X238.76Y-109.855
X238.76Y-167.005
X240.347Y-145.415
X241.141Y-186.055
X245.11Y-107.315
X245.11Y-164.465
X247.491Y-183.515
X248.285Y-128.905
X253.047Y-147.955
X254.635Y-126.365
X257.81Y-81.28
X257.81Y-109.855
X257.81Y-167.005
X259.397Y-145.415
X264.16Y-78.74
X264.16Y-107.315
X264.16Y-164.465
X264.953Y-186.055
X267.335Y-128.905
X271.303Y-183.515
X272.097Y-147.955
X273.685Y-126.365
X276.86Y-81.28
X276.86Y-109.855
X276.86Y-167.005
X278.447Y-145.415
X283.21Y-78.74
X283.21Y-107.315
X283.21Y-164.465
X286.385Y-128.905
X288.766Y-186.055
X291.147Y-147.955
X292.735Y-126.365
X295.116Y-183.515
X295.91Y-81.28
X295.91Y-109.855
X297.498Y-145.415
X302.26Y-78.74
X302.26Y-107.315
X305.435Y-167.005
X311.785Y-164.465
X312.578Y-138.43
X312.578Y-186.055
X314.96Y-81.28
X314.96Y-109.855
X318.928Y-135.89
X318.928Y-183.515
X321.31Y-78.74
X321.31Y-107.315
X343.535Y-109.855
X343.535Y-128.905
X343.535Y-186.055
X349.885Y-107.315
X349.885Y-126.365
X349.885Y-183.515
X362.585Y-109.855
X362.585Y-128.905
X362.585Y-167.005
X362.585Y-186.055
X368.935Y-107.315
X368.935Y-126.365
X368.935Y-164.465
X368.935Y-183.515
X381.635Y-109.855
X381.635Y-128.905
X381.635Y-186.055
X387.985Y-107.315
X387.985Y-126.365
X387.985Y-183.515
T5
X40.64Y-66.04
X40.64Y-133.35
X40.64Y-190.5
X120.65Y-64.77
X146.05Y-180.975
X171.45Y-64.77
X222.25Y-180.975
X246.38Y-66.04
X300.99Y-123.825
X331.47Y-66.04
X331.47Y-90.17
X331.47Y-123.825
X331.47Y-180.975
X394.335Y-90.17
X394.335Y-190.5
T6
X158.75Y-187.975
X172.25Y-187.975
X196.05Y-187.975
X209.55Y-187.975
X322.118Y-121.45
X322.118Y-145.25
T7
X50.8Y-76.2
X50.8Y-104.775
X53.181Y-180.975
X55.563Y-123.825
X57.944Y-142.875
X60.325Y-161.925
X69.85Y-104.775
X76.993Y-180.975
X79.375Y-123.825
X84.138Y-142.875
X88.9Y-76.2
X88.9Y-104.775
X88.9Y-161.925
X98.425Y-123.825
X100.806Y-180.975
X103.188Y-142.875
X107.95Y-76.2
X107.95Y-104.775
X107.95Y-161.925
X117.475Y-123.825
X122.237Y-142.875
X124.618Y-180.975
X127.0Y-76.2
X127.0Y-104.775
X127.0Y-161.925
X136.525Y-123.825
X141.287Y-142.875
X146.05Y-76.2
X146.05Y-104.775
X146.05Y-161.925
X155.575Y-123.825
X158.75Y-172.735
X160.338Y-142.875
X165.1Y-104.775
X165.1Y-161.925
X172.25Y-172.735
X174.625Y-76.2
X174.625Y-123.825
X179.387Y-142.875
X184.15Y-104.775
X184.15Y-161.925
X184.15Y-180.975
X193.675Y-76.2
X193.675Y-123.825
X196.05Y-172.735
X198.438Y-142.875
X203.2Y-104.775
X203.2Y-161.925
X209.55Y-172.735
X212.725Y-76.2
X212.725Y-123.825
X217.487Y-142.875
X222.25Y-104.775
X222.25Y-161.925
X231.775Y-76.2
X231.775Y-123.825
X236.537Y-142.875
X241.3Y-104.775
X241.3Y-161.925
X243.681Y-180.975
X250.825Y-123.825
X255.587Y-142.875
X260.35Y-76.2
X260.35Y-104.775
X260.35Y-161.925
X267.493Y-180.975
X269.875Y-123.825
X274.637Y-142.875
X279.4Y-76.2
X279.4Y-104.775
X279.4Y-161.925
X288.925Y-123.825
X291.306Y-180.975
X293.688Y-142.875
X298.45Y-76.2
X298.45Y-104.775
X306.878Y-121.45
X306.878Y-145.25
X307.975Y-161.925
X315.118Y-133.35
X315.118Y-180.975
X317.5Y-76.2
X317.5Y-104.775
X346.075Y-104.775
X346.075Y-123.825
X346.075Y-180.975
X365.125Y-104.775
X365.125Y-123.825
X365.125Y-161.925
X365.125Y-180.975
X384.175Y-104.775
X384.175Y-123.825
X384.175Y-180.975
T0
M30
