M48
; DRILL file {KiCad (5.1.10)-1} date 09/02/21 14:46:46
; FORMAT={-:-/ absolute / metric / decimal}
; #@! TF.CreationDate,2021-09-02T14:46:46+09:00
; #@! TF.GenerationSoftware,Kicad,Pcbnew,(5.1.10)-1
FMAT,2
METRIC
T1C0.400
T2C0.900
T3C1.020
T4C1.500
T5C3.500
T6C3.050
T7C4.000
%
G90
G05
T1
X63.5Y-114.935
X94.615Y-113.03
X115.57Y-100.33
X115.57Y-111.035
X119.38Y-111.035
X119.38Y-111.035
X121.285Y-111.125
X123.19Y-69.215
X124.46Y-83.185
X125.73Y-111.76
X126.365Y-92.075
X126.365Y-93.98
X126.365Y-118.11
X127.0Y-109.22
X128.27Y-83.185
X128.905Y-117.475
X129.54Y-92.075
X129.54Y-94.615
X129.54Y-110.49
X132.08Y-113.03
X132.08Y-115.57
X142.082Y-100.807
X145.415Y-88.9
X146.05Y-114.3
X146.05Y-117.475
X149.86Y-114.3
X149.86Y-117.475
X150.495Y-136.525
X151.765Y-146.685
X153.035Y-114.3
X153.035Y-147.955
X157.48Y-170.18
X158.115Y-153.035
X160.02Y-153.035
X162.56Y-175.895
X162.605Y-117.52
X165.735Y-114.3
X168.91Y-129.54
X168.91Y-141.605
X176.53Y-97.79
X176.53Y-169.545
X179.07Y-85.09
X189.077Y-83.337
X189.865Y-136.525
X191.135Y-132.715
X203.2Y-114.3
X211.455Y-100.965
X212.725Y-99.695
X214.947Y-151.447
X231.775Y-97.79
X250.825Y-97.79
X267.335Y-172.085
X274.32Y-109.855
X287.655Y-100.965
X299.72Y-169.545
X301.625Y-125.095
X301.625Y-125.095
X306.705Y-100.965
X320.04Y-119.38
X346.71Y-113.03
X346.71Y-113.03
X354.33Y-117.475
T2
X49.53Y-71.12
X49.53Y-99.695
X51.911Y-175.895
X52.07Y-71.12
X52.07Y-99.695
X54.293Y-118.745
X54.451Y-175.895
X56.674Y-137.795
X56.833Y-118.745
X59.055Y-156.845
X59.214Y-137.795
X61.595Y-156.845
X68.58Y-99.695
X71.12Y-99.695
X75.724Y-175.895
X78.105Y-118.745
X78.263Y-175.895
X80.645Y-118.745
X82.867Y-137.795
X85.407Y-137.795
X87.63Y-71.12
X87.63Y-99.695
X87.63Y-156.845
X90.17Y-71.12
X90.17Y-99.695
X90.17Y-156.845
X97.155Y-118.745
X99.536Y-175.895
X99.695Y-118.745
X101.917Y-137.795
X102.076Y-175.895
X104.457Y-137.795
X106.68Y-71.12
X106.68Y-99.695
X106.68Y-156.845
X109.22Y-71.12
X109.22Y-99.695
X109.22Y-156.845
X116.205Y-118.745
X118.745Y-118.745
X120.968Y-137.795
X123.349Y-175.895
X123.507Y-137.795
X125.73Y-71.12
X125.73Y-99.695
X125.73Y-156.845
X125.888Y-175.895
X128.27Y-71.12
X128.27Y-99.695
X128.27Y-156.845
X135.255Y-118.745
X137.795Y-118.745
X140.017Y-137.795
X142.558Y-137.795
X144.78Y-71.12
X144.78Y-99.695
X144.78Y-156.845
X147.32Y-71.12
X147.32Y-99.695
X147.32Y-156.845
X154.305Y-118.745
X156.845Y-118.745
X159.067Y-137.795
X161.607Y-137.795
X163.83Y-99.695
X163.83Y-156.845
X166.37Y-99.695
X166.37Y-156.845
X173.355Y-71.12
X173.355Y-118.745
X175.895Y-71.12
X175.895Y-118.745
X178.117Y-137.795
X180.657Y-137.795
X182.88Y-99.695
X182.88Y-156.845
X182.88Y-175.895
X185.42Y-99.695
X185.42Y-156.845
X185.42Y-175.895
X192.405Y-71.12
X192.405Y-118.745
X194.945Y-71.12
X194.945Y-118.745
X197.167Y-137.795
X199.707Y-137.795
X201.93Y-99.695
X201.93Y-156.845
X204.47Y-99.695
X204.47Y-156.845
X211.455Y-71.12
X211.455Y-118.745
X213.995Y-71.12
X213.995Y-118.745
X216.218Y-137.795
X218.757Y-137.795
X220.98Y-99.695
X220.98Y-156.845
X223.52Y-99.695
X223.52Y-156.845
X230.505Y-71.12
X230.505Y-118.745
X233.045Y-71.12
X233.045Y-118.745
X235.267Y-137.795
X237.807Y-137.795
X240.03Y-99.695
X240.03Y-156.845
X242.411Y-175.895
X242.57Y-99.695
X242.57Y-156.845
X244.951Y-175.895
X249.555Y-118.745
X252.095Y-118.745
X254.317Y-137.795
X256.858Y-137.795
X259.08Y-71.12
X259.08Y-99.695
X259.08Y-156.845
X261.62Y-71.12
X261.62Y-99.695
X261.62Y-156.845
X266.224Y-175.895
X268.605Y-118.745
X268.763Y-175.895
X271.145Y-118.745
X273.368Y-137.795
X275.907Y-137.795
X278.13Y-71.12
X278.13Y-99.695
X278.13Y-156.845
X280.67Y-71.12
X280.67Y-99.695
X280.67Y-156.845
X287.655Y-118.745
X290.036Y-175.895
X290.195Y-118.745
X292.417Y-137.795
X292.576Y-175.895
X294.957Y-137.795
X297.18Y-71.12
X297.18Y-99.695
X299.72Y-71.12
X299.72Y-99.695
X306.705Y-156.845
X309.245Y-156.845
X313.848Y-128.27
X313.848Y-175.895
X316.23Y-71.12
X316.23Y-99.695
X316.388Y-128.27
X316.388Y-175.895
X318.77Y-71.12
X318.77Y-99.695
X344.805Y-99.695
X344.805Y-118.745
X344.805Y-175.895
X347.345Y-99.695
X347.345Y-118.745
X347.345Y-175.895
X363.855Y-99.695
X363.855Y-118.745
X363.855Y-156.845
X363.855Y-175.895
X366.395Y-99.695
X366.395Y-118.745
X366.395Y-156.845
X366.395Y-175.895
X382.905Y-99.695
X382.905Y-118.745
X382.905Y-175.895
X385.445Y-99.695
X385.445Y-118.745
X385.445Y-175.895
T3
X137.096Y-61.531
X137.096Y-64.072
X137.096Y-66.611
X137.096Y-69.151
X137.096Y-71.691
X137.096Y-74.231
X137.096Y-76.772
X137.096Y-79.311
X137.096Y-81.852
X137.096Y-84.391
X137.096Y-86.931
X137.096Y-89.471
X137.096Y-92.011
X137.096Y-94.551
X137.096Y-97.091
X137.096Y-99.631
X137.096Y-102.171
X137.096Y-104.712
X137.096Y-107.251
X137.096Y-109.791
X154.876Y-61.531
X154.876Y-64.072
X154.876Y-66.611
X154.876Y-69.151
X154.876Y-71.691
X154.876Y-74.231
X154.876Y-76.772
X154.876Y-79.311
X154.876Y-81.852
X154.876Y-84.391
X154.876Y-86.931
X154.876Y-89.471
X154.876Y-92.011
X154.876Y-94.551
X154.876Y-97.091
X154.876Y-99.631
X154.876Y-102.171
X154.876Y-104.712
X154.876Y-107.251
X154.876Y-109.791
T4
X48.26Y-81.28
X48.26Y-109.855
X50.641Y-186.055
X53.023Y-128.905
X54.61Y-78.74
X54.61Y-107.315
X55.404Y-147.955
X56.991Y-183.515
X57.785Y-167.005
X59.373Y-126.365
X61.754Y-145.415
X64.135Y-164.465
X67.31Y-109.855
X73.66Y-107.315
X74.453Y-186.055
X76.835Y-128.905
X80.803Y-183.515
X81.597Y-147.955
X83.185Y-126.365
X86.36Y-81.28
X86.36Y-109.855
X86.36Y-167.005
X87.947Y-145.415
X92.71Y-78.74
X92.71Y-107.315
X92.71Y-164.465
X95.885Y-128.905
X98.266Y-186.055
X100.647Y-147.955
X102.235Y-126.365
X104.616Y-183.515
X105.41Y-81.28
X105.41Y-109.855
X105.41Y-167.005
X106.997Y-145.415
X111.76Y-78.74
X111.76Y-107.315
X111.76Y-164.465
X114.935Y-128.905
X119.697Y-147.955
X121.285Y-126.365
X122.078Y-186.055
X124.46Y-81.28
X124.46Y-109.855
X124.46Y-167.005
X126.047Y-145.415
X128.428Y-183.515
X130.81Y-78.74
X130.81Y-107.315
X130.81Y-164.465
X133.985Y-128.905
X138.748Y-147.955
X140.335Y-126.365
X143.51Y-81.28
X143.51Y-109.855
X143.51Y-167.005
X145.097Y-145.415
X149.86Y-78.74
X149.86Y-107.315
X149.86Y-164.465
X153.035Y-128.905
X157.797Y-147.955
X159.385Y-126.365
X162.56Y-109.855
X162.56Y-167.005
X164.147Y-145.415
X168.91Y-107.315
X168.91Y-164.465
X172.085Y-81.28
X172.085Y-128.905
X176.847Y-147.955
X178.435Y-78.74
X178.435Y-126.365
X181.61Y-109.855
X181.61Y-167.005
X181.61Y-186.055
X183.197Y-145.415
X187.96Y-107.315
X187.96Y-164.465
X187.96Y-183.515
X191.135Y-81.28
X191.135Y-128.905
X195.897Y-147.955
X197.485Y-78.74
X197.485Y-126.365
X200.66Y-109.855
X200.66Y-167.005
X202.248Y-145.415
X207.01Y-107.315
X207.01Y-164.465
X210.185Y-81.28
X210.185Y-128.905
X214.947Y-147.955
X216.535Y-78.74
X216.535Y-126.365
X219.71Y-109.855
X219.71Y-167.005
X221.297Y-145.415
X226.06Y-107.315
X226.06Y-164.465
X229.235Y-81.28
X229.235Y-128.905
X233.998Y-147.955
X235.585Y-78.74
X235.585Y-126.365
X238.76Y-109.855
X238.76Y-167.005
X240.347Y-145.415
X241.141Y-186.055
X245.11Y-107.315
X245.11Y-164.465
X247.491Y-183.515
X248.285Y-128.905
X253.047Y-147.955
X254.635Y-126.365
X257.81Y-81.28
X257.81Y-109.855
X257.81Y-167.005
X259.397Y-145.415
X264.16Y-78.74
X264.16Y-107.315
X264.16Y-164.465
X264.953Y-186.055
X267.335Y-128.905
X271.303Y-183.515
X272.097Y-147.955
X273.685Y-126.365
X276.86Y-81.28
X276.86Y-109.855
X276.86Y-167.005
X278.447Y-145.415
X283.21Y-78.74
X283.21Y-107.315
X283.21Y-164.465
X286.385Y-128.905
X288.766Y-186.055
X291.147Y-147.955
X292.735Y-126.365
X295.116Y-183.515
X295.91Y-81.28
X295.91Y-109.855
X297.498Y-145.415
X302.26Y-78.74
X302.26Y-107.315
X305.435Y-167.005
X311.785Y-164.465
X312.578Y-138.43
X312.578Y-186.055
X314.96Y-81.28
X314.96Y-109.855
X318.928Y-135.89
X318.928Y-183.515
X321.31Y-78.74
X321.31Y-107.315
X343.535Y-109.855
X343.535Y-128.905
X343.535Y-186.055
X349.885Y-107.315
X349.885Y-126.365
X349.885Y-183.515
X362.585Y-109.855
X362.585Y-128.905
X362.585Y-167.005
X362.585Y-186.055
X368.935Y-107.315
X368.935Y-126.365
X368.935Y-164.465
X368.935Y-183.515
X381.635Y-109.855
X381.635Y-128.905
X381.635Y-186.055
X387.985Y-107.315
X387.985Y-126.365
X387.985Y-183.515
T5
X40.64Y-66.04
X40.64Y-133.35
X40.64Y-190.5
X127.0Y-64.77
X146.05Y-180.34
X165.1Y-64.77
X222.25Y-180.34
X246.38Y-66.04
X300.99Y-130.81
X327.66Y-66.04
X331.47Y-130.81
X331.47Y-180.34
X334.01Y-88.9
X393.7Y-95.25
X393.7Y-190.5
T6
X158.75Y-187.975
X172.25Y-187.975
X196.05Y-187.975
X209.55Y-187.975
X322.118Y-121.45
X322.118Y-145.25
T7
X50.8Y-76.2
X50.8Y-104.775
X53.181Y-180.975
X55.563Y-123.825
X57.944Y-142.875
X60.325Y-161.925
X69.85Y-104.775
X76.993Y-180.975
X79.375Y-123.825
X84.138Y-142.875
X88.9Y-76.2
X88.9Y-104.775
X88.9Y-161.925
X98.425Y-123.825
X100.806Y-180.975
X103.188Y-142.875
X107.95Y-76.2
X107.95Y-104.775
X107.95Y-161.925
X117.475Y-123.825
X122.237Y-142.875
X124.618Y-180.975
X127.0Y-76.2
X127.0Y-104.775
X127.0Y-161.925
X136.525Y-123.825
X141.287Y-142.875
X146.05Y-76.2
X146.05Y-104.775
X146.05Y-161.925
X155.575Y-123.825
X158.75Y-172.735
X160.338Y-142.875
X165.1Y-104.775
X165.1Y-161.925
X172.25Y-172.735
X174.625Y-76.2
X174.625Y-123.825
X179.387Y-142.875
X184.15Y-104.775
X184.15Y-161.925
X184.15Y-180.975
X193.675Y-76.2
X193.675Y-123.825
X196.05Y-172.735
X198.438Y-142.875
X203.2Y-104.775
X203.2Y-161.925
X209.55Y-172.735
X212.725Y-76.2
X212.725Y-123.825
X217.487Y-142.875
X222.25Y-104.775
X222.25Y-161.925
X231.775Y-76.2
X231.775Y-123.825
X236.537Y-142.875
X241.3Y-104.775
X241.3Y-161.925
X243.681Y-180.975
X250.825Y-123.825
X255.587Y-142.875
X260.35Y-76.2
X260.35Y-104.775
X260.35Y-161.925
X267.493Y-180.975
X269.875Y-123.825
X274.637Y-142.875
X279.4Y-76.2
X279.4Y-104.775
X279.4Y-161.925
X288.925Y-123.825
X291.306Y-180.975
X293.688Y-142.875
X298.45Y-76.2
X298.45Y-104.775
X306.878Y-121.45
X306.878Y-145.25
X307.975Y-161.925
X315.118Y-133.35
X315.118Y-180.975
X317.5Y-76.2
X317.5Y-104.775
X346.075Y-104.775
X346.075Y-123.825
X346.075Y-180.975
X365.125Y-104.775
X365.125Y-123.825
X365.125Y-161.925
X365.125Y-180.975
X384.175Y-104.775
X384.175Y-123.825
X384.175Y-180.975
T0
M30
