G04 #@! TF.GenerationSoftware,KiCad,Pcbnew,(5.1.10)-1*
G04 #@! TF.CreationDate,2021-09-02T14:46:41+09:00*
G04 #@! TF.ProjectId,KiCAD,4b694341-442e-46b6-9963-61645f706362,rev?*
G04 #@! TF.SameCoordinates,Original*
G04 #@! TF.FileFunction,Soldermask,Bot*
G04 #@! TF.FilePolarity,Negative*
%FSLAX46Y46*%
G04 Gerber Fmt 4.6, Leading zero omitted, Abs format (unit mm)*
G04 Created by KiCad (PCBNEW (5.1.10)-1) date 2021-09-02 14:46:41*
%MOMM*%
%LPD*%
G01*
G04 APERTURE LIST*
%ADD10C,4.000000*%
%ADD11C,2.200000*%
%ADD12C,3.050000*%
%ADD13O,1.700000X1.700000*%
%ADD14R,1.700000X1.700000*%
%ADD15R,1.800000X1.800000*%
%ADD16C,1.800000*%
%ADD17C,7.000000*%
G04 APERTURE END LIST*
G36*
G01*
X80370000Y-113075000D02*
X80920000Y-113075000D01*
G75*
G02*
X81120000Y-113275000I0J-200000D01*
G01*
X81120000Y-113675000D01*
G75*
G02*
X80920000Y-113875000I-200000J0D01*
G01*
X80370000Y-113875000D01*
G75*
G02*
X80170000Y-113675000I0J200000D01*
G01*
X80170000Y-113275000D01*
G75*
G02*
X80370000Y-113075000I200000J0D01*
G01*
G37*
G36*
G01*
X80370000Y-114725000D02*
X80920000Y-114725000D01*
G75*
G02*
X81120000Y-114925000I0J-200000D01*
G01*
X81120000Y-115325000D01*
G75*
G02*
X80920000Y-115525000I-200000J0D01*
G01*
X80370000Y-115525000D01*
G75*
G02*
X80170000Y-115325000I0J200000D01*
G01*
X80170000Y-114925000D01*
G75*
G02*
X80370000Y-114725000I200000J0D01*
G01*
G37*
D10*
X107950000Y-76200000D03*
D11*
X111760000Y-78740000D03*
X105410000Y-81280000D03*
D10*
X243681000Y-180975000D03*
D11*
X247491000Y-183515000D03*
X241141000Y-186055000D03*
D12*
X322118499Y-145250000D03*
X322118499Y-121450000D03*
D10*
X306878499Y-121450000D03*
X306878499Y-145250000D03*
X315118499Y-133350000D03*
D11*
X318928499Y-135890000D03*
X312578499Y-138430000D03*
D10*
X307975000Y-161925000D03*
D11*
X311785000Y-164465000D03*
X305435000Y-167005000D03*
D10*
X60325000Y-161925000D03*
D11*
X64135000Y-164465000D03*
X57785000Y-167005000D03*
D10*
X57944000Y-142875000D03*
D11*
X61754000Y-145415000D03*
X55404000Y-147955000D03*
D10*
X55563000Y-123825000D03*
D11*
X59373000Y-126365000D03*
X53023000Y-128905000D03*
D10*
X279400000Y-104775000D03*
D11*
X283210000Y-107315000D03*
X276860000Y-109855000D03*
D10*
X127000000Y-161925000D03*
D11*
X130810000Y-164465000D03*
X124460000Y-167005000D03*
D10*
X384175000Y-104775000D03*
D11*
X387985000Y-107315000D03*
X381635000Y-109855000D03*
X181610000Y-186055000D03*
X187960000Y-183515000D03*
D10*
X184150000Y-180975000D03*
X172250000Y-172735000D03*
X196050000Y-172735000D03*
D12*
X196050000Y-187975000D03*
X172250000Y-187975000D03*
D10*
X209550000Y-172735000D03*
X158750000Y-172735000D03*
D12*
X209550000Y-187975000D03*
X158750000Y-187975000D03*
D10*
X384175000Y-180975000D03*
D11*
X387985000Y-183515000D03*
X381635000Y-186055000D03*
D10*
X365125000Y-180975000D03*
D11*
X368935000Y-183515000D03*
X362585000Y-186055000D03*
D10*
X346075000Y-180975000D03*
D11*
X349885000Y-183515000D03*
X343535000Y-186055000D03*
D10*
X315118499Y-180975000D03*
D11*
X318928499Y-183515000D03*
X312578499Y-186055000D03*
D10*
X291306000Y-180975000D03*
D11*
X295116000Y-183515000D03*
X288766000Y-186055000D03*
D10*
X267493500Y-180975000D03*
D11*
X271303500Y-183515000D03*
X264953500Y-186055000D03*
D10*
X124618500Y-180975000D03*
D11*
X128428500Y-183515000D03*
X122078500Y-186055000D03*
D10*
X100806000Y-180975000D03*
D11*
X104616000Y-183515000D03*
X98266000Y-186055000D03*
D10*
X76993500Y-180975000D03*
D11*
X80803500Y-183515000D03*
X74453500Y-186055000D03*
D10*
X53181000Y-180975000D03*
D11*
X56991000Y-183515000D03*
X50641000Y-186055000D03*
D10*
X365125000Y-161925000D03*
D11*
X368935000Y-164465000D03*
X362585000Y-167005000D03*
D10*
X279400000Y-161925000D03*
D11*
X283210000Y-164465000D03*
X276860000Y-167005000D03*
D10*
X260350000Y-161925000D03*
D11*
X264160000Y-164465000D03*
X257810000Y-167005000D03*
D10*
X241300000Y-161925000D03*
D11*
X245110000Y-164465000D03*
X238760000Y-167005000D03*
D10*
X222250000Y-161925000D03*
D11*
X226060000Y-164465000D03*
X219710000Y-167005000D03*
D10*
X203200000Y-161925000D03*
D11*
X207010000Y-164465000D03*
X200660000Y-167005000D03*
D10*
X184150000Y-161925000D03*
D11*
X187960000Y-164465000D03*
X181610000Y-167005000D03*
D10*
X165100000Y-161925000D03*
D11*
X168910000Y-164465000D03*
X162560000Y-167005000D03*
D10*
X146050000Y-161925000D03*
D11*
X149860000Y-164465000D03*
X143510000Y-167005000D03*
D10*
X107950000Y-161925000D03*
D11*
X111760000Y-164465000D03*
X105410000Y-167005000D03*
D10*
X88900000Y-161925000D03*
D11*
X92710000Y-164465000D03*
X86360000Y-167005000D03*
D10*
X293687500Y-142875000D03*
D11*
X297497500Y-145415000D03*
X291147500Y-147955000D03*
D10*
X274637500Y-142875000D03*
D11*
X278447500Y-145415000D03*
X272097500Y-147955000D03*
D10*
X255587500Y-142875000D03*
D11*
X259397500Y-145415000D03*
X253047500Y-147955000D03*
D10*
X236537500Y-142875000D03*
D11*
X240347500Y-145415000D03*
X233997500Y-147955000D03*
D10*
X217487500Y-142875000D03*
D11*
X221297500Y-145415000D03*
X214947500Y-147955000D03*
D10*
X198437500Y-142875000D03*
D11*
X202247500Y-145415000D03*
X195897500Y-147955000D03*
D10*
X179387500Y-142875000D03*
D11*
X183197500Y-145415000D03*
X176847500Y-147955000D03*
D10*
X160337500Y-142875000D03*
D11*
X164147500Y-145415000D03*
X157797500Y-147955000D03*
D10*
X141287500Y-142875000D03*
D11*
X145097500Y-145415000D03*
X138747500Y-147955000D03*
D10*
X122237500Y-142875000D03*
D11*
X126047500Y-145415000D03*
X119697500Y-147955000D03*
D10*
X103187500Y-142875000D03*
D11*
X106997500Y-145415000D03*
X100647500Y-147955000D03*
D10*
X84137500Y-142875000D03*
D11*
X87947500Y-145415000D03*
X81597500Y-147955000D03*
D10*
X384175000Y-123825000D03*
D11*
X387985000Y-126365000D03*
X381635000Y-128905000D03*
D10*
X365125000Y-123825000D03*
D11*
X368935000Y-126365000D03*
X362585000Y-128905000D03*
D10*
X346075000Y-123825000D03*
D11*
X349885000Y-126365000D03*
X343535000Y-128905000D03*
D10*
X288925000Y-123825000D03*
D11*
X292735000Y-126365000D03*
X286385000Y-128905000D03*
D10*
X269875000Y-123825000D03*
D11*
X273685000Y-126365000D03*
X267335000Y-128905000D03*
D10*
X250825000Y-123825000D03*
D11*
X254635000Y-126365000D03*
X248285000Y-128905000D03*
D10*
X231775000Y-123825000D03*
D11*
X235585000Y-126365000D03*
X229235000Y-128905000D03*
D10*
X212725000Y-123825000D03*
D11*
X216535000Y-126365000D03*
X210185000Y-128905000D03*
D10*
X193675000Y-123825000D03*
D11*
X197485000Y-126365000D03*
X191135000Y-128905000D03*
D10*
X174625000Y-123825000D03*
D11*
X178435000Y-126365000D03*
X172085000Y-128905000D03*
D10*
X155575000Y-123825000D03*
D11*
X159385000Y-126365000D03*
X153035000Y-128905000D03*
D10*
X136525000Y-123825000D03*
D11*
X140335000Y-126365000D03*
X133985000Y-128905000D03*
D10*
X117475000Y-123825000D03*
D11*
X121285000Y-126365000D03*
X114935000Y-128905000D03*
D10*
X98425000Y-123825000D03*
D11*
X102235000Y-126365000D03*
X95885000Y-128905000D03*
D10*
X79375000Y-123825000D03*
D11*
X83185000Y-126365000D03*
X76835000Y-128905000D03*
D10*
X365125000Y-104775000D03*
D11*
X368935000Y-107315000D03*
X362585000Y-109855000D03*
D10*
X346075000Y-104775000D03*
D11*
X349885000Y-107315000D03*
X343535000Y-109855000D03*
D10*
X317500000Y-104775000D03*
D11*
X321310000Y-107315000D03*
X314960000Y-109855000D03*
D10*
X298450000Y-104775000D03*
D11*
X302260000Y-107315000D03*
X295910000Y-109855000D03*
D10*
X260350000Y-104775000D03*
D11*
X264160000Y-107315000D03*
X257810000Y-109855000D03*
D10*
X241300000Y-104775000D03*
D11*
X245110000Y-107315000D03*
X238760000Y-109855000D03*
D10*
X222250000Y-104775000D03*
D11*
X226060000Y-107315000D03*
X219710000Y-109855000D03*
D10*
X203200000Y-104775000D03*
D11*
X207010000Y-107315000D03*
X200660000Y-109855000D03*
D10*
X184150000Y-104775000D03*
D11*
X187960000Y-107315000D03*
X181610000Y-109855000D03*
D10*
X165100000Y-104775000D03*
D11*
X168910000Y-107315000D03*
X162560000Y-109855000D03*
D10*
X146050000Y-104775000D03*
D11*
X149860000Y-107315000D03*
X143510000Y-109855000D03*
D10*
X127000000Y-104775000D03*
D11*
X130810000Y-107315000D03*
X124460000Y-109855000D03*
D10*
X107950000Y-104775000D03*
D11*
X111760000Y-107315000D03*
X105410000Y-109855000D03*
D10*
X88900000Y-104775000D03*
D11*
X92710000Y-107315000D03*
X86360000Y-109855000D03*
D10*
X69850000Y-104775000D03*
D11*
X73660000Y-107315000D03*
X67310000Y-109855000D03*
D10*
X50800000Y-104775000D03*
D11*
X54610000Y-107315000D03*
X48260000Y-109855000D03*
D10*
X317500000Y-76200000D03*
D11*
X321310000Y-78740000D03*
X314960000Y-81280000D03*
D10*
X298450000Y-76200000D03*
D11*
X302260000Y-78740000D03*
X295910000Y-81280000D03*
D10*
X279400000Y-76200000D03*
D11*
X283210000Y-78740000D03*
X276860000Y-81280000D03*
D10*
X260350000Y-76200000D03*
D11*
X264160000Y-78740000D03*
X257810000Y-81280000D03*
D10*
X231775000Y-76200000D03*
D11*
X235585000Y-78740000D03*
X229235000Y-81280000D03*
D10*
X212725000Y-76200000D03*
D11*
X216535000Y-78740000D03*
X210185000Y-81280000D03*
D10*
X193675000Y-76200000D03*
D11*
X197485000Y-78740000D03*
X191135000Y-81280000D03*
D10*
X174625000Y-76200000D03*
D11*
X178435000Y-78740000D03*
X172085000Y-81280000D03*
D10*
X146050000Y-76200000D03*
D11*
X149860000Y-78740000D03*
X143510000Y-81280000D03*
D10*
X127000000Y-76200000D03*
D11*
X130810000Y-78740000D03*
X124460000Y-81280000D03*
D10*
X88900000Y-76200000D03*
D11*
X92710000Y-78740000D03*
X86360000Y-81280000D03*
D10*
X50800000Y-76200000D03*
D11*
X54610000Y-78740000D03*
X48260000Y-81280000D03*
G36*
G01*
X388876250Y-187915000D02*
X388363750Y-187915000D01*
G75*
G02*
X388145000Y-187696250I0J218750D01*
G01*
X388145000Y-187258750D01*
G75*
G02*
X388363750Y-187040000I218750J0D01*
G01*
X388876250Y-187040000D01*
G75*
G02*
X389095000Y-187258750I0J-218750D01*
G01*
X389095000Y-187696250D01*
G75*
G02*
X388876250Y-187915000I-218750J0D01*
G01*
G37*
G36*
G01*
X388876250Y-186340000D02*
X388363750Y-186340000D01*
G75*
G02*
X388145000Y-186121250I0J218750D01*
G01*
X388145000Y-185683750D01*
G75*
G02*
X388363750Y-185465000I218750J0D01*
G01*
X388876250Y-185465000D01*
G75*
G02*
X389095000Y-185683750I0J-218750D01*
G01*
X389095000Y-186121250D01*
G75*
G02*
X388876250Y-186340000I-218750J0D01*
G01*
G37*
G36*
G01*
X369826250Y-187915000D02*
X369313750Y-187915000D01*
G75*
G02*
X369095000Y-187696250I0J218750D01*
G01*
X369095000Y-187258750D01*
G75*
G02*
X369313750Y-187040000I218750J0D01*
G01*
X369826250Y-187040000D01*
G75*
G02*
X370045000Y-187258750I0J-218750D01*
G01*
X370045000Y-187696250D01*
G75*
G02*
X369826250Y-187915000I-218750J0D01*
G01*
G37*
G36*
G01*
X369826250Y-186340000D02*
X369313750Y-186340000D01*
G75*
G02*
X369095000Y-186121250I0J218750D01*
G01*
X369095000Y-185683750D01*
G75*
G02*
X369313750Y-185465000I218750J0D01*
G01*
X369826250Y-185465000D01*
G75*
G02*
X370045000Y-185683750I0J-218750D01*
G01*
X370045000Y-186121250D01*
G75*
G02*
X369826250Y-186340000I-218750J0D01*
G01*
G37*
G36*
G01*
X350776250Y-187915000D02*
X350263750Y-187915000D01*
G75*
G02*
X350045000Y-187696250I0J218750D01*
G01*
X350045000Y-187258750D01*
G75*
G02*
X350263750Y-187040000I218750J0D01*
G01*
X350776250Y-187040000D01*
G75*
G02*
X350995000Y-187258750I0J-218750D01*
G01*
X350995000Y-187696250D01*
G75*
G02*
X350776250Y-187915000I-218750J0D01*
G01*
G37*
G36*
G01*
X350776250Y-186340000D02*
X350263750Y-186340000D01*
G75*
G02*
X350045000Y-186121250I0J218750D01*
G01*
X350045000Y-185683750D01*
G75*
G02*
X350263750Y-185465000I218750J0D01*
G01*
X350776250Y-185465000D01*
G75*
G02*
X350995000Y-185683750I0J-218750D01*
G01*
X350995000Y-186121250D01*
G75*
G02*
X350776250Y-186340000I-218750J0D01*
G01*
G37*
G36*
G01*
X320296250Y-187915000D02*
X319783750Y-187915000D01*
G75*
G02*
X319565000Y-187696250I0J218750D01*
G01*
X319565000Y-187258750D01*
G75*
G02*
X319783750Y-187040000I218750J0D01*
G01*
X320296250Y-187040000D01*
G75*
G02*
X320515000Y-187258750I0J-218750D01*
G01*
X320515000Y-187696250D01*
G75*
G02*
X320296250Y-187915000I-218750J0D01*
G01*
G37*
G36*
G01*
X320296250Y-186340000D02*
X319783750Y-186340000D01*
G75*
G02*
X319565000Y-186121250I0J218750D01*
G01*
X319565000Y-185683750D01*
G75*
G02*
X319783750Y-185465000I218750J0D01*
G01*
X320296250Y-185465000D01*
G75*
G02*
X320515000Y-185683750I0J-218750D01*
G01*
X320515000Y-186121250D01*
G75*
G02*
X320296250Y-186340000I-218750J0D01*
G01*
G37*
G36*
G01*
X296166250Y-187915000D02*
X295653750Y-187915000D01*
G75*
G02*
X295435000Y-187696250I0J218750D01*
G01*
X295435000Y-187258750D01*
G75*
G02*
X295653750Y-187040000I218750J0D01*
G01*
X296166250Y-187040000D01*
G75*
G02*
X296385000Y-187258750I0J-218750D01*
G01*
X296385000Y-187696250D01*
G75*
G02*
X296166250Y-187915000I-218750J0D01*
G01*
G37*
G36*
G01*
X296166250Y-186340000D02*
X295653750Y-186340000D01*
G75*
G02*
X295435000Y-186121250I0J218750D01*
G01*
X295435000Y-185683750D01*
G75*
G02*
X295653750Y-185465000I218750J0D01*
G01*
X296166250Y-185465000D01*
G75*
G02*
X296385000Y-185683750I0J-218750D01*
G01*
X296385000Y-186121250D01*
G75*
G02*
X296166250Y-186340000I-218750J0D01*
G01*
G37*
G36*
G01*
X272036250Y-186340000D02*
X271523750Y-186340000D01*
G75*
G02*
X271305000Y-186121250I0J218750D01*
G01*
X271305000Y-185683750D01*
G75*
G02*
X271523750Y-185465000I218750J0D01*
G01*
X272036250Y-185465000D01*
G75*
G02*
X272255000Y-185683750I0J-218750D01*
G01*
X272255000Y-186121250D01*
G75*
G02*
X272036250Y-186340000I-218750J0D01*
G01*
G37*
G36*
G01*
X272036250Y-187915000D02*
X271523750Y-187915000D01*
G75*
G02*
X271305000Y-187696250I0J218750D01*
G01*
X271305000Y-187258750D01*
G75*
G02*
X271523750Y-187040000I218750J0D01*
G01*
X272036250Y-187040000D01*
G75*
G02*
X272255000Y-187258750I0J-218750D01*
G01*
X272255000Y-187696250D01*
G75*
G02*
X272036250Y-187915000I-218750J0D01*
G01*
G37*
G36*
G01*
X247906250Y-186340000D02*
X247393750Y-186340000D01*
G75*
G02*
X247175000Y-186121250I0J218750D01*
G01*
X247175000Y-185683750D01*
G75*
G02*
X247393750Y-185465000I218750J0D01*
G01*
X247906250Y-185465000D01*
G75*
G02*
X248125000Y-185683750I0J-218750D01*
G01*
X248125000Y-186121250D01*
G75*
G02*
X247906250Y-186340000I-218750J0D01*
G01*
G37*
G36*
G01*
X247906250Y-187915000D02*
X247393750Y-187915000D01*
G75*
G02*
X247175000Y-187696250I0J218750D01*
G01*
X247175000Y-187258750D01*
G75*
G02*
X247393750Y-187040000I218750J0D01*
G01*
X247906250Y-187040000D01*
G75*
G02*
X248125000Y-187258750I0J-218750D01*
G01*
X248125000Y-187696250D01*
G75*
G02*
X247906250Y-187915000I-218750J0D01*
G01*
G37*
G36*
G01*
X188216250Y-186340000D02*
X187703750Y-186340000D01*
G75*
G02*
X187485000Y-186121250I0J218750D01*
G01*
X187485000Y-185683750D01*
G75*
G02*
X187703750Y-185465000I218750J0D01*
G01*
X188216250Y-185465000D01*
G75*
G02*
X188435000Y-185683750I0J-218750D01*
G01*
X188435000Y-186121250D01*
G75*
G02*
X188216250Y-186340000I-218750J0D01*
G01*
G37*
G36*
G01*
X188216250Y-187915000D02*
X187703750Y-187915000D01*
G75*
G02*
X187485000Y-187696250I0J218750D01*
G01*
X187485000Y-187258750D01*
G75*
G02*
X187703750Y-187040000I218750J0D01*
G01*
X188216250Y-187040000D01*
G75*
G02*
X188435000Y-187258750I0J-218750D01*
G01*
X188435000Y-187696250D01*
G75*
G02*
X188216250Y-187915000I-218750J0D01*
G01*
G37*
G36*
G01*
X129796250Y-186340000D02*
X129283750Y-186340000D01*
G75*
G02*
X129065000Y-186121250I0J218750D01*
G01*
X129065000Y-185683750D01*
G75*
G02*
X129283750Y-185465000I218750J0D01*
G01*
X129796250Y-185465000D01*
G75*
G02*
X130015000Y-185683750I0J-218750D01*
G01*
X130015000Y-186121250D01*
G75*
G02*
X129796250Y-186340000I-218750J0D01*
G01*
G37*
G36*
G01*
X129796250Y-187915000D02*
X129283750Y-187915000D01*
G75*
G02*
X129065000Y-187696250I0J218750D01*
G01*
X129065000Y-187258750D01*
G75*
G02*
X129283750Y-187040000I218750J0D01*
G01*
X129796250Y-187040000D01*
G75*
G02*
X130015000Y-187258750I0J-218750D01*
G01*
X130015000Y-187696250D01*
G75*
G02*
X129796250Y-187915000I-218750J0D01*
G01*
G37*
G36*
G01*
X105666250Y-187915000D02*
X105153750Y-187915000D01*
G75*
G02*
X104935000Y-187696250I0J218750D01*
G01*
X104935000Y-187258750D01*
G75*
G02*
X105153750Y-187040000I218750J0D01*
G01*
X105666250Y-187040000D01*
G75*
G02*
X105885000Y-187258750I0J-218750D01*
G01*
X105885000Y-187696250D01*
G75*
G02*
X105666250Y-187915000I-218750J0D01*
G01*
G37*
G36*
G01*
X105666250Y-186340000D02*
X105153750Y-186340000D01*
G75*
G02*
X104935000Y-186121250I0J218750D01*
G01*
X104935000Y-185683750D01*
G75*
G02*
X105153750Y-185465000I218750J0D01*
G01*
X105666250Y-185465000D01*
G75*
G02*
X105885000Y-185683750I0J-218750D01*
G01*
X105885000Y-186121250D01*
G75*
G02*
X105666250Y-186340000I-218750J0D01*
G01*
G37*
G36*
G01*
X81536250Y-187915000D02*
X81023750Y-187915000D01*
G75*
G02*
X80805000Y-187696250I0J218750D01*
G01*
X80805000Y-187258750D01*
G75*
G02*
X81023750Y-187040000I218750J0D01*
G01*
X81536250Y-187040000D01*
G75*
G02*
X81755000Y-187258750I0J-218750D01*
G01*
X81755000Y-187696250D01*
G75*
G02*
X81536250Y-187915000I-218750J0D01*
G01*
G37*
G36*
G01*
X81536250Y-186340000D02*
X81023750Y-186340000D01*
G75*
G02*
X80805000Y-186121250I0J218750D01*
G01*
X80805000Y-185683750D01*
G75*
G02*
X81023750Y-185465000I218750J0D01*
G01*
X81536250Y-185465000D01*
G75*
G02*
X81755000Y-185683750I0J-218750D01*
G01*
X81755000Y-186121250D01*
G75*
G02*
X81536250Y-186340000I-218750J0D01*
G01*
G37*
G36*
G01*
X57406250Y-187915000D02*
X56893750Y-187915000D01*
G75*
G02*
X56675000Y-187696250I0J218750D01*
G01*
X56675000Y-187258750D01*
G75*
G02*
X56893750Y-187040000I218750J0D01*
G01*
X57406250Y-187040000D01*
G75*
G02*
X57625000Y-187258750I0J-218750D01*
G01*
X57625000Y-187696250D01*
G75*
G02*
X57406250Y-187915000I-218750J0D01*
G01*
G37*
G36*
G01*
X57406250Y-186340000D02*
X56893750Y-186340000D01*
G75*
G02*
X56675000Y-186121250I0J218750D01*
G01*
X56675000Y-185683750D01*
G75*
G02*
X56893750Y-185465000I218750J0D01*
G01*
X57406250Y-185465000D01*
G75*
G02*
X57625000Y-185683750I0J-218750D01*
G01*
X57625000Y-186121250D01*
G75*
G02*
X57406250Y-186340000I-218750J0D01*
G01*
G37*
G36*
G01*
X369191250Y-168865000D02*
X368678750Y-168865000D01*
G75*
G02*
X368460000Y-168646250I0J218750D01*
G01*
X368460000Y-168208750D01*
G75*
G02*
X368678750Y-167990000I218750J0D01*
G01*
X369191250Y-167990000D01*
G75*
G02*
X369410000Y-168208750I0J-218750D01*
G01*
X369410000Y-168646250D01*
G75*
G02*
X369191250Y-168865000I-218750J0D01*
G01*
G37*
G36*
G01*
X369191250Y-167290000D02*
X368678750Y-167290000D01*
G75*
G02*
X368460000Y-167071250I0J218750D01*
G01*
X368460000Y-166633750D01*
G75*
G02*
X368678750Y-166415000I218750J0D01*
G01*
X369191250Y-166415000D01*
G75*
G02*
X369410000Y-166633750I0J-218750D01*
G01*
X369410000Y-167071250D01*
G75*
G02*
X369191250Y-167290000I-218750J0D01*
G01*
G37*
G36*
G01*
X312041250Y-168865000D02*
X311528750Y-168865000D01*
G75*
G02*
X311310000Y-168646250I0J218750D01*
G01*
X311310000Y-168208750D01*
G75*
G02*
X311528750Y-167990000I218750J0D01*
G01*
X312041250Y-167990000D01*
G75*
G02*
X312260000Y-168208750I0J-218750D01*
G01*
X312260000Y-168646250D01*
G75*
G02*
X312041250Y-168865000I-218750J0D01*
G01*
G37*
G36*
G01*
X312041250Y-167290000D02*
X311528750Y-167290000D01*
G75*
G02*
X311310000Y-167071250I0J218750D01*
G01*
X311310000Y-166633750D01*
G75*
G02*
X311528750Y-166415000I218750J0D01*
G01*
X312041250Y-166415000D01*
G75*
G02*
X312260000Y-166633750I0J-218750D01*
G01*
X312260000Y-167071250D01*
G75*
G02*
X312041250Y-167290000I-218750J0D01*
G01*
G37*
G36*
G01*
X283466250Y-168865000D02*
X282953750Y-168865000D01*
G75*
G02*
X282735000Y-168646250I0J218750D01*
G01*
X282735000Y-168208750D01*
G75*
G02*
X282953750Y-167990000I218750J0D01*
G01*
X283466250Y-167990000D01*
G75*
G02*
X283685000Y-168208750I0J-218750D01*
G01*
X283685000Y-168646250D01*
G75*
G02*
X283466250Y-168865000I-218750J0D01*
G01*
G37*
G36*
G01*
X283466250Y-167290000D02*
X282953750Y-167290000D01*
G75*
G02*
X282735000Y-167071250I0J218750D01*
G01*
X282735000Y-166633750D01*
G75*
G02*
X282953750Y-166415000I218750J0D01*
G01*
X283466250Y-166415000D01*
G75*
G02*
X283685000Y-166633750I0J-218750D01*
G01*
X283685000Y-167071250D01*
G75*
G02*
X283466250Y-167290000I-218750J0D01*
G01*
G37*
G36*
G01*
X264416250Y-168865000D02*
X263903750Y-168865000D01*
G75*
G02*
X263685000Y-168646250I0J218750D01*
G01*
X263685000Y-168208750D01*
G75*
G02*
X263903750Y-167990000I218750J0D01*
G01*
X264416250Y-167990000D01*
G75*
G02*
X264635000Y-168208750I0J-218750D01*
G01*
X264635000Y-168646250D01*
G75*
G02*
X264416250Y-168865000I-218750J0D01*
G01*
G37*
G36*
G01*
X264416250Y-167290000D02*
X263903750Y-167290000D01*
G75*
G02*
X263685000Y-167071250I0J218750D01*
G01*
X263685000Y-166633750D01*
G75*
G02*
X263903750Y-166415000I218750J0D01*
G01*
X264416250Y-166415000D01*
G75*
G02*
X264635000Y-166633750I0J-218750D01*
G01*
X264635000Y-167071250D01*
G75*
G02*
X264416250Y-167290000I-218750J0D01*
G01*
G37*
G36*
G01*
X245366250Y-168865000D02*
X244853750Y-168865000D01*
G75*
G02*
X244635000Y-168646250I0J218750D01*
G01*
X244635000Y-168208750D01*
G75*
G02*
X244853750Y-167990000I218750J0D01*
G01*
X245366250Y-167990000D01*
G75*
G02*
X245585000Y-168208750I0J-218750D01*
G01*
X245585000Y-168646250D01*
G75*
G02*
X245366250Y-168865000I-218750J0D01*
G01*
G37*
G36*
G01*
X245366250Y-167290000D02*
X244853750Y-167290000D01*
G75*
G02*
X244635000Y-167071250I0J218750D01*
G01*
X244635000Y-166633750D01*
G75*
G02*
X244853750Y-166415000I218750J0D01*
G01*
X245366250Y-166415000D01*
G75*
G02*
X245585000Y-166633750I0J-218750D01*
G01*
X245585000Y-167071250D01*
G75*
G02*
X245366250Y-167290000I-218750J0D01*
G01*
G37*
G36*
G01*
X226316250Y-168865000D02*
X225803750Y-168865000D01*
G75*
G02*
X225585000Y-168646250I0J218750D01*
G01*
X225585000Y-168208750D01*
G75*
G02*
X225803750Y-167990000I218750J0D01*
G01*
X226316250Y-167990000D01*
G75*
G02*
X226535000Y-168208750I0J-218750D01*
G01*
X226535000Y-168646250D01*
G75*
G02*
X226316250Y-168865000I-218750J0D01*
G01*
G37*
G36*
G01*
X226316250Y-167290000D02*
X225803750Y-167290000D01*
G75*
G02*
X225585000Y-167071250I0J218750D01*
G01*
X225585000Y-166633750D01*
G75*
G02*
X225803750Y-166415000I218750J0D01*
G01*
X226316250Y-166415000D01*
G75*
G02*
X226535000Y-166633750I0J-218750D01*
G01*
X226535000Y-167071250D01*
G75*
G02*
X226316250Y-167290000I-218750J0D01*
G01*
G37*
G36*
G01*
X207266250Y-168865000D02*
X206753750Y-168865000D01*
G75*
G02*
X206535000Y-168646250I0J218750D01*
G01*
X206535000Y-168208750D01*
G75*
G02*
X206753750Y-167990000I218750J0D01*
G01*
X207266250Y-167990000D01*
G75*
G02*
X207485000Y-168208750I0J-218750D01*
G01*
X207485000Y-168646250D01*
G75*
G02*
X207266250Y-168865000I-218750J0D01*
G01*
G37*
G36*
G01*
X207266250Y-167290000D02*
X206753750Y-167290000D01*
G75*
G02*
X206535000Y-167071250I0J218750D01*
G01*
X206535000Y-166633750D01*
G75*
G02*
X206753750Y-166415000I218750J0D01*
G01*
X207266250Y-166415000D01*
G75*
G02*
X207485000Y-166633750I0J-218750D01*
G01*
X207485000Y-167071250D01*
G75*
G02*
X207266250Y-167290000I-218750J0D01*
G01*
G37*
G36*
G01*
X188216250Y-168865000D02*
X187703750Y-168865000D01*
G75*
G02*
X187485000Y-168646250I0J218750D01*
G01*
X187485000Y-168208750D01*
G75*
G02*
X187703750Y-167990000I218750J0D01*
G01*
X188216250Y-167990000D01*
G75*
G02*
X188435000Y-168208750I0J-218750D01*
G01*
X188435000Y-168646250D01*
G75*
G02*
X188216250Y-168865000I-218750J0D01*
G01*
G37*
G36*
G01*
X188216250Y-167290000D02*
X187703750Y-167290000D01*
G75*
G02*
X187485000Y-167071250I0J218750D01*
G01*
X187485000Y-166633750D01*
G75*
G02*
X187703750Y-166415000I218750J0D01*
G01*
X188216250Y-166415000D01*
G75*
G02*
X188435000Y-166633750I0J-218750D01*
G01*
X188435000Y-167071250D01*
G75*
G02*
X188216250Y-167290000I-218750J0D01*
G01*
G37*
G36*
G01*
X169166250Y-168865000D02*
X168653750Y-168865000D01*
G75*
G02*
X168435000Y-168646250I0J218750D01*
G01*
X168435000Y-168208750D01*
G75*
G02*
X168653750Y-167990000I218750J0D01*
G01*
X169166250Y-167990000D01*
G75*
G02*
X169385000Y-168208750I0J-218750D01*
G01*
X169385000Y-168646250D01*
G75*
G02*
X169166250Y-168865000I-218750J0D01*
G01*
G37*
G36*
G01*
X169166250Y-167290000D02*
X168653750Y-167290000D01*
G75*
G02*
X168435000Y-167071250I0J218750D01*
G01*
X168435000Y-166633750D01*
G75*
G02*
X168653750Y-166415000I218750J0D01*
G01*
X169166250Y-166415000D01*
G75*
G02*
X169385000Y-166633750I0J-218750D01*
G01*
X169385000Y-167071250D01*
G75*
G02*
X169166250Y-167290000I-218750J0D01*
G01*
G37*
G36*
G01*
X150116250Y-168865000D02*
X149603750Y-168865000D01*
G75*
G02*
X149385000Y-168646250I0J218750D01*
G01*
X149385000Y-168208750D01*
G75*
G02*
X149603750Y-167990000I218750J0D01*
G01*
X150116250Y-167990000D01*
G75*
G02*
X150335000Y-168208750I0J-218750D01*
G01*
X150335000Y-168646250D01*
G75*
G02*
X150116250Y-168865000I-218750J0D01*
G01*
G37*
G36*
G01*
X150116250Y-167290000D02*
X149603750Y-167290000D01*
G75*
G02*
X149385000Y-167071250I0J218750D01*
G01*
X149385000Y-166633750D01*
G75*
G02*
X149603750Y-166415000I218750J0D01*
G01*
X150116250Y-166415000D01*
G75*
G02*
X150335000Y-166633750I0J-218750D01*
G01*
X150335000Y-167071250D01*
G75*
G02*
X150116250Y-167290000I-218750J0D01*
G01*
G37*
G36*
G01*
X131066250Y-168865000D02*
X130553750Y-168865000D01*
G75*
G02*
X130335000Y-168646250I0J218750D01*
G01*
X130335000Y-168208750D01*
G75*
G02*
X130553750Y-167990000I218750J0D01*
G01*
X131066250Y-167990000D01*
G75*
G02*
X131285000Y-168208750I0J-218750D01*
G01*
X131285000Y-168646250D01*
G75*
G02*
X131066250Y-168865000I-218750J0D01*
G01*
G37*
G36*
G01*
X131066250Y-167290000D02*
X130553750Y-167290000D01*
G75*
G02*
X130335000Y-167071250I0J218750D01*
G01*
X130335000Y-166633750D01*
G75*
G02*
X130553750Y-166415000I218750J0D01*
G01*
X131066250Y-166415000D01*
G75*
G02*
X131285000Y-166633750I0J-218750D01*
G01*
X131285000Y-167071250D01*
G75*
G02*
X131066250Y-167290000I-218750J0D01*
G01*
G37*
G36*
G01*
X112016250Y-168865000D02*
X111503750Y-168865000D01*
G75*
G02*
X111285000Y-168646250I0J218750D01*
G01*
X111285000Y-168208750D01*
G75*
G02*
X111503750Y-167990000I218750J0D01*
G01*
X112016250Y-167990000D01*
G75*
G02*
X112235000Y-168208750I0J-218750D01*
G01*
X112235000Y-168646250D01*
G75*
G02*
X112016250Y-168865000I-218750J0D01*
G01*
G37*
G36*
G01*
X112016250Y-167290000D02*
X111503750Y-167290000D01*
G75*
G02*
X111285000Y-167071250I0J218750D01*
G01*
X111285000Y-166633750D01*
G75*
G02*
X111503750Y-166415000I218750J0D01*
G01*
X112016250Y-166415000D01*
G75*
G02*
X112235000Y-166633750I0J-218750D01*
G01*
X112235000Y-167071250D01*
G75*
G02*
X112016250Y-167290000I-218750J0D01*
G01*
G37*
G36*
G01*
X92966250Y-168865000D02*
X92453750Y-168865000D01*
G75*
G02*
X92235000Y-168646250I0J218750D01*
G01*
X92235000Y-168208750D01*
G75*
G02*
X92453750Y-167990000I218750J0D01*
G01*
X92966250Y-167990000D01*
G75*
G02*
X93185000Y-168208750I0J-218750D01*
G01*
X93185000Y-168646250D01*
G75*
G02*
X92966250Y-168865000I-218750J0D01*
G01*
G37*
G36*
G01*
X92966250Y-167290000D02*
X92453750Y-167290000D01*
G75*
G02*
X92235000Y-167071250I0J218750D01*
G01*
X92235000Y-166633750D01*
G75*
G02*
X92453750Y-166415000I218750J0D01*
G01*
X92966250Y-166415000D01*
G75*
G02*
X93185000Y-166633750I0J-218750D01*
G01*
X93185000Y-167071250D01*
G75*
G02*
X92966250Y-167290000I-218750J0D01*
G01*
G37*
G36*
G01*
X65026250Y-168865000D02*
X64513750Y-168865000D01*
G75*
G02*
X64295000Y-168646250I0J218750D01*
G01*
X64295000Y-168208750D01*
G75*
G02*
X64513750Y-167990000I218750J0D01*
G01*
X65026250Y-167990000D01*
G75*
G02*
X65245000Y-168208750I0J-218750D01*
G01*
X65245000Y-168646250D01*
G75*
G02*
X65026250Y-168865000I-218750J0D01*
G01*
G37*
G36*
G01*
X65026250Y-167290000D02*
X64513750Y-167290000D01*
G75*
G02*
X64295000Y-167071250I0J218750D01*
G01*
X64295000Y-166633750D01*
G75*
G02*
X64513750Y-166415000I218750J0D01*
G01*
X65026250Y-166415000D01*
G75*
G02*
X65245000Y-166633750I0J-218750D01*
G01*
X65245000Y-167071250D01*
G75*
G02*
X65026250Y-167290000I-218750J0D01*
G01*
G37*
G36*
G01*
X298071250Y-149815000D02*
X297558750Y-149815000D01*
G75*
G02*
X297340000Y-149596250I0J218750D01*
G01*
X297340000Y-149158750D01*
G75*
G02*
X297558750Y-148940000I218750J0D01*
G01*
X298071250Y-148940000D01*
G75*
G02*
X298290000Y-149158750I0J-218750D01*
G01*
X298290000Y-149596250D01*
G75*
G02*
X298071250Y-149815000I-218750J0D01*
G01*
G37*
G36*
G01*
X298071250Y-148240000D02*
X297558750Y-148240000D01*
G75*
G02*
X297340000Y-148021250I0J218750D01*
G01*
X297340000Y-147583750D01*
G75*
G02*
X297558750Y-147365000I218750J0D01*
G01*
X298071250Y-147365000D01*
G75*
G02*
X298290000Y-147583750I0J-218750D01*
G01*
X298290000Y-148021250D01*
G75*
G02*
X298071250Y-148240000I-218750J0D01*
G01*
G37*
G36*
G01*
X279021250Y-149815000D02*
X278508750Y-149815000D01*
G75*
G02*
X278290000Y-149596250I0J218750D01*
G01*
X278290000Y-149158750D01*
G75*
G02*
X278508750Y-148940000I218750J0D01*
G01*
X279021250Y-148940000D01*
G75*
G02*
X279240000Y-149158750I0J-218750D01*
G01*
X279240000Y-149596250D01*
G75*
G02*
X279021250Y-149815000I-218750J0D01*
G01*
G37*
G36*
G01*
X279021250Y-148240000D02*
X278508750Y-148240000D01*
G75*
G02*
X278290000Y-148021250I0J218750D01*
G01*
X278290000Y-147583750D01*
G75*
G02*
X278508750Y-147365000I218750J0D01*
G01*
X279021250Y-147365000D01*
G75*
G02*
X279240000Y-147583750I0J-218750D01*
G01*
X279240000Y-148021250D01*
G75*
G02*
X279021250Y-148240000I-218750J0D01*
G01*
G37*
G36*
G01*
X260606250Y-149815000D02*
X260093750Y-149815000D01*
G75*
G02*
X259875000Y-149596250I0J218750D01*
G01*
X259875000Y-149158750D01*
G75*
G02*
X260093750Y-148940000I218750J0D01*
G01*
X260606250Y-148940000D01*
G75*
G02*
X260825000Y-149158750I0J-218750D01*
G01*
X260825000Y-149596250D01*
G75*
G02*
X260606250Y-149815000I-218750J0D01*
G01*
G37*
G36*
G01*
X260606250Y-148240000D02*
X260093750Y-148240000D01*
G75*
G02*
X259875000Y-148021250I0J218750D01*
G01*
X259875000Y-147583750D01*
G75*
G02*
X260093750Y-147365000I218750J0D01*
G01*
X260606250Y-147365000D01*
G75*
G02*
X260825000Y-147583750I0J-218750D01*
G01*
X260825000Y-148021250D01*
G75*
G02*
X260606250Y-148240000I-218750J0D01*
G01*
G37*
G36*
G01*
X240921250Y-149815000D02*
X240408750Y-149815000D01*
G75*
G02*
X240190000Y-149596250I0J218750D01*
G01*
X240190000Y-149158750D01*
G75*
G02*
X240408750Y-148940000I218750J0D01*
G01*
X240921250Y-148940000D01*
G75*
G02*
X241140000Y-149158750I0J-218750D01*
G01*
X241140000Y-149596250D01*
G75*
G02*
X240921250Y-149815000I-218750J0D01*
G01*
G37*
G36*
G01*
X240921250Y-148240000D02*
X240408750Y-148240000D01*
G75*
G02*
X240190000Y-148021250I0J218750D01*
G01*
X240190000Y-147583750D01*
G75*
G02*
X240408750Y-147365000I218750J0D01*
G01*
X240921250Y-147365000D01*
G75*
G02*
X241140000Y-147583750I0J-218750D01*
G01*
X241140000Y-148021250D01*
G75*
G02*
X240921250Y-148240000I-218750J0D01*
G01*
G37*
G36*
G01*
X221871250Y-149815000D02*
X221358750Y-149815000D01*
G75*
G02*
X221140000Y-149596250I0J218750D01*
G01*
X221140000Y-149158750D01*
G75*
G02*
X221358750Y-148940000I218750J0D01*
G01*
X221871250Y-148940000D01*
G75*
G02*
X222090000Y-149158750I0J-218750D01*
G01*
X222090000Y-149596250D01*
G75*
G02*
X221871250Y-149815000I-218750J0D01*
G01*
G37*
G36*
G01*
X221871250Y-148240000D02*
X221358750Y-148240000D01*
G75*
G02*
X221140000Y-148021250I0J218750D01*
G01*
X221140000Y-147583750D01*
G75*
G02*
X221358750Y-147365000I218750J0D01*
G01*
X221871250Y-147365000D01*
G75*
G02*
X222090000Y-147583750I0J-218750D01*
G01*
X222090000Y-148021250D01*
G75*
G02*
X221871250Y-148240000I-218750J0D01*
G01*
G37*
G36*
G01*
X202821250Y-149815000D02*
X202308750Y-149815000D01*
G75*
G02*
X202090000Y-149596250I0J218750D01*
G01*
X202090000Y-149158750D01*
G75*
G02*
X202308750Y-148940000I218750J0D01*
G01*
X202821250Y-148940000D01*
G75*
G02*
X203040000Y-149158750I0J-218750D01*
G01*
X203040000Y-149596250D01*
G75*
G02*
X202821250Y-149815000I-218750J0D01*
G01*
G37*
G36*
G01*
X202821250Y-148240000D02*
X202308750Y-148240000D01*
G75*
G02*
X202090000Y-148021250I0J218750D01*
G01*
X202090000Y-147583750D01*
G75*
G02*
X202308750Y-147365000I218750J0D01*
G01*
X202821250Y-147365000D01*
G75*
G02*
X203040000Y-147583750I0J-218750D01*
G01*
X203040000Y-148021250D01*
G75*
G02*
X202821250Y-148240000I-218750J0D01*
G01*
G37*
G36*
G01*
X183771250Y-149815000D02*
X183258750Y-149815000D01*
G75*
G02*
X183040000Y-149596250I0J218750D01*
G01*
X183040000Y-149158750D01*
G75*
G02*
X183258750Y-148940000I218750J0D01*
G01*
X183771250Y-148940000D01*
G75*
G02*
X183990000Y-149158750I0J-218750D01*
G01*
X183990000Y-149596250D01*
G75*
G02*
X183771250Y-149815000I-218750J0D01*
G01*
G37*
G36*
G01*
X183771250Y-148240000D02*
X183258750Y-148240000D01*
G75*
G02*
X183040000Y-148021250I0J218750D01*
G01*
X183040000Y-147583750D01*
G75*
G02*
X183258750Y-147365000I218750J0D01*
G01*
X183771250Y-147365000D01*
G75*
G02*
X183990000Y-147583750I0J-218750D01*
G01*
X183990000Y-148021250D01*
G75*
G02*
X183771250Y-148240000I-218750J0D01*
G01*
G37*
G36*
G01*
X165356250Y-149815000D02*
X164843750Y-149815000D01*
G75*
G02*
X164625000Y-149596250I0J218750D01*
G01*
X164625000Y-149158750D01*
G75*
G02*
X164843750Y-148940000I218750J0D01*
G01*
X165356250Y-148940000D01*
G75*
G02*
X165575000Y-149158750I0J-218750D01*
G01*
X165575000Y-149596250D01*
G75*
G02*
X165356250Y-149815000I-218750J0D01*
G01*
G37*
G36*
G01*
X165356250Y-148240000D02*
X164843750Y-148240000D01*
G75*
G02*
X164625000Y-148021250I0J218750D01*
G01*
X164625000Y-147583750D01*
G75*
G02*
X164843750Y-147365000I218750J0D01*
G01*
X165356250Y-147365000D01*
G75*
G02*
X165575000Y-147583750I0J-218750D01*
G01*
X165575000Y-148021250D01*
G75*
G02*
X165356250Y-148240000I-218750J0D01*
G01*
G37*
G36*
G01*
X146306250Y-149815000D02*
X145793750Y-149815000D01*
G75*
G02*
X145575000Y-149596250I0J218750D01*
G01*
X145575000Y-149158750D01*
G75*
G02*
X145793750Y-148940000I218750J0D01*
G01*
X146306250Y-148940000D01*
G75*
G02*
X146525000Y-149158750I0J-218750D01*
G01*
X146525000Y-149596250D01*
G75*
G02*
X146306250Y-149815000I-218750J0D01*
G01*
G37*
G36*
G01*
X146306250Y-148240000D02*
X145793750Y-148240000D01*
G75*
G02*
X145575000Y-148021250I0J218750D01*
G01*
X145575000Y-147583750D01*
G75*
G02*
X145793750Y-147365000I218750J0D01*
G01*
X146306250Y-147365000D01*
G75*
G02*
X146525000Y-147583750I0J-218750D01*
G01*
X146525000Y-148021250D01*
G75*
G02*
X146306250Y-148240000I-218750J0D01*
G01*
G37*
G36*
G01*
X127256250Y-149815000D02*
X126743750Y-149815000D01*
G75*
G02*
X126525000Y-149596250I0J218750D01*
G01*
X126525000Y-149158750D01*
G75*
G02*
X126743750Y-148940000I218750J0D01*
G01*
X127256250Y-148940000D01*
G75*
G02*
X127475000Y-149158750I0J-218750D01*
G01*
X127475000Y-149596250D01*
G75*
G02*
X127256250Y-149815000I-218750J0D01*
G01*
G37*
G36*
G01*
X127256250Y-148240000D02*
X126743750Y-148240000D01*
G75*
G02*
X126525000Y-148021250I0J218750D01*
G01*
X126525000Y-147583750D01*
G75*
G02*
X126743750Y-147365000I218750J0D01*
G01*
X127256250Y-147365000D01*
G75*
G02*
X127475000Y-147583750I0J-218750D01*
G01*
X127475000Y-148021250D01*
G75*
G02*
X127256250Y-148240000I-218750J0D01*
G01*
G37*
G36*
G01*
X108206250Y-149815000D02*
X107693750Y-149815000D01*
G75*
G02*
X107475000Y-149596250I0J218750D01*
G01*
X107475000Y-149158750D01*
G75*
G02*
X107693750Y-148940000I218750J0D01*
G01*
X108206250Y-148940000D01*
G75*
G02*
X108425000Y-149158750I0J-218750D01*
G01*
X108425000Y-149596250D01*
G75*
G02*
X108206250Y-149815000I-218750J0D01*
G01*
G37*
G36*
G01*
X108206250Y-148240000D02*
X107693750Y-148240000D01*
G75*
G02*
X107475000Y-148021250I0J218750D01*
G01*
X107475000Y-147583750D01*
G75*
G02*
X107693750Y-147365000I218750J0D01*
G01*
X108206250Y-147365000D01*
G75*
G02*
X108425000Y-147583750I0J-218750D01*
G01*
X108425000Y-148021250D01*
G75*
G02*
X108206250Y-148240000I-218750J0D01*
G01*
G37*
G36*
G01*
X89156250Y-149815000D02*
X88643750Y-149815000D01*
G75*
G02*
X88425000Y-149596250I0J218750D01*
G01*
X88425000Y-149158750D01*
G75*
G02*
X88643750Y-148940000I218750J0D01*
G01*
X89156250Y-148940000D01*
G75*
G02*
X89375000Y-149158750I0J-218750D01*
G01*
X89375000Y-149596250D01*
G75*
G02*
X89156250Y-149815000I-218750J0D01*
G01*
G37*
G36*
G01*
X89156250Y-148240000D02*
X88643750Y-148240000D01*
G75*
G02*
X88425000Y-148021250I0J218750D01*
G01*
X88425000Y-147583750D01*
G75*
G02*
X88643750Y-147365000I218750J0D01*
G01*
X89156250Y-147365000D01*
G75*
G02*
X89375000Y-147583750I0J-218750D01*
G01*
X89375000Y-148021250D01*
G75*
G02*
X89156250Y-148240000I-218750J0D01*
G01*
G37*
G36*
G01*
X62486250Y-149815000D02*
X61973750Y-149815000D01*
G75*
G02*
X61755000Y-149596250I0J218750D01*
G01*
X61755000Y-149158750D01*
G75*
G02*
X61973750Y-148940000I218750J0D01*
G01*
X62486250Y-148940000D01*
G75*
G02*
X62705000Y-149158750I0J-218750D01*
G01*
X62705000Y-149596250D01*
G75*
G02*
X62486250Y-149815000I-218750J0D01*
G01*
G37*
G36*
G01*
X62486250Y-148240000D02*
X61973750Y-148240000D01*
G75*
G02*
X61755000Y-148021250I0J218750D01*
G01*
X61755000Y-147583750D01*
G75*
G02*
X61973750Y-147365000I218750J0D01*
G01*
X62486250Y-147365000D01*
G75*
G02*
X62705000Y-147583750I0J-218750D01*
G01*
X62705000Y-148021250D01*
G75*
G02*
X62486250Y-148240000I-218750J0D01*
G01*
G37*
G36*
G01*
X388876250Y-130765000D02*
X388363750Y-130765000D01*
G75*
G02*
X388145000Y-130546250I0J218750D01*
G01*
X388145000Y-130108750D01*
G75*
G02*
X388363750Y-129890000I218750J0D01*
G01*
X388876250Y-129890000D01*
G75*
G02*
X389095000Y-130108750I0J-218750D01*
G01*
X389095000Y-130546250D01*
G75*
G02*
X388876250Y-130765000I-218750J0D01*
G01*
G37*
G36*
G01*
X388876250Y-129190000D02*
X388363750Y-129190000D01*
G75*
G02*
X388145000Y-128971250I0J218750D01*
G01*
X388145000Y-128533750D01*
G75*
G02*
X388363750Y-128315000I218750J0D01*
G01*
X388876250Y-128315000D01*
G75*
G02*
X389095000Y-128533750I0J-218750D01*
G01*
X389095000Y-128971250D01*
G75*
G02*
X388876250Y-129190000I-218750J0D01*
G01*
G37*
G36*
G01*
X369826250Y-130765000D02*
X369313750Y-130765000D01*
G75*
G02*
X369095000Y-130546250I0J218750D01*
G01*
X369095000Y-130108750D01*
G75*
G02*
X369313750Y-129890000I218750J0D01*
G01*
X369826250Y-129890000D01*
G75*
G02*
X370045000Y-130108750I0J-218750D01*
G01*
X370045000Y-130546250D01*
G75*
G02*
X369826250Y-130765000I-218750J0D01*
G01*
G37*
G36*
G01*
X369826250Y-129190000D02*
X369313750Y-129190000D01*
G75*
G02*
X369095000Y-128971250I0J218750D01*
G01*
X369095000Y-128533750D01*
G75*
G02*
X369313750Y-128315000I218750J0D01*
G01*
X369826250Y-128315000D01*
G75*
G02*
X370045000Y-128533750I0J-218750D01*
G01*
X370045000Y-128971250D01*
G75*
G02*
X369826250Y-129190000I-218750J0D01*
G01*
G37*
G36*
G01*
X350776250Y-130765000D02*
X350263750Y-130765000D01*
G75*
G02*
X350045000Y-130546250I0J218750D01*
G01*
X350045000Y-130108750D01*
G75*
G02*
X350263750Y-129890000I218750J0D01*
G01*
X350776250Y-129890000D01*
G75*
G02*
X350995000Y-130108750I0J-218750D01*
G01*
X350995000Y-130546250D01*
G75*
G02*
X350776250Y-130765000I-218750J0D01*
G01*
G37*
G36*
G01*
X350776250Y-129190000D02*
X350263750Y-129190000D01*
G75*
G02*
X350045000Y-128971250I0J218750D01*
G01*
X350045000Y-128533750D01*
G75*
G02*
X350263750Y-128315000I218750J0D01*
G01*
X350776250Y-128315000D01*
G75*
G02*
X350995000Y-128533750I0J-218750D01*
G01*
X350995000Y-128971250D01*
G75*
G02*
X350776250Y-129190000I-218750J0D01*
G01*
G37*
G36*
G01*
X320296250Y-140925000D02*
X319783750Y-140925000D01*
G75*
G02*
X319565000Y-140706250I0J218750D01*
G01*
X319565000Y-140268750D01*
G75*
G02*
X319783750Y-140050000I218750J0D01*
G01*
X320296250Y-140050000D01*
G75*
G02*
X320515000Y-140268750I0J-218750D01*
G01*
X320515000Y-140706250D01*
G75*
G02*
X320296250Y-140925000I-218750J0D01*
G01*
G37*
G36*
G01*
X320296250Y-139350000D02*
X319783750Y-139350000D01*
G75*
G02*
X319565000Y-139131250I0J218750D01*
G01*
X319565000Y-138693750D01*
G75*
G02*
X319783750Y-138475000I218750J0D01*
G01*
X320296250Y-138475000D01*
G75*
G02*
X320515000Y-138693750I0J-218750D01*
G01*
X320515000Y-139131250D01*
G75*
G02*
X320296250Y-139350000I-218750J0D01*
G01*
G37*
G36*
G01*
X293626250Y-130765000D02*
X293113750Y-130765000D01*
G75*
G02*
X292895000Y-130546250I0J218750D01*
G01*
X292895000Y-130108750D01*
G75*
G02*
X293113750Y-129890000I218750J0D01*
G01*
X293626250Y-129890000D01*
G75*
G02*
X293845000Y-130108750I0J-218750D01*
G01*
X293845000Y-130546250D01*
G75*
G02*
X293626250Y-130765000I-218750J0D01*
G01*
G37*
G36*
G01*
X293626250Y-129190000D02*
X293113750Y-129190000D01*
G75*
G02*
X292895000Y-128971250I0J218750D01*
G01*
X292895000Y-128533750D01*
G75*
G02*
X293113750Y-128315000I218750J0D01*
G01*
X293626250Y-128315000D01*
G75*
G02*
X293845000Y-128533750I0J-218750D01*
G01*
X293845000Y-128971250D01*
G75*
G02*
X293626250Y-129190000I-218750J0D01*
G01*
G37*
G36*
G01*
X274576250Y-130765000D02*
X274063750Y-130765000D01*
G75*
G02*
X273845000Y-130546250I0J218750D01*
G01*
X273845000Y-130108750D01*
G75*
G02*
X274063750Y-129890000I218750J0D01*
G01*
X274576250Y-129890000D01*
G75*
G02*
X274795000Y-130108750I0J-218750D01*
G01*
X274795000Y-130546250D01*
G75*
G02*
X274576250Y-130765000I-218750J0D01*
G01*
G37*
G36*
G01*
X274576250Y-129190000D02*
X274063750Y-129190000D01*
G75*
G02*
X273845000Y-128971250I0J218750D01*
G01*
X273845000Y-128533750D01*
G75*
G02*
X274063750Y-128315000I218750J0D01*
G01*
X274576250Y-128315000D01*
G75*
G02*
X274795000Y-128533750I0J-218750D01*
G01*
X274795000Y-128971250D01*
G75*
G02*
X274576250Y-129190000I-218750J0D01*
G01*
G37*
G36*
G01*
X255526250Y-130765000D02*
X255013750Y-130765000D01*
G75*
G02*
X254795000Y-130546250I0J218750D01*
G01*
X254795000Y-130108750D01*
G75*
G02*
X255013750Y-129890000I218750J0D01*
G01*
X255526250Y-129890000D01*
G75*
G02*
X255745000Y-130108750I0J-218750D01*
G01*
X255745000Y-130546250D01*
G75*
G02*
X255526250Y-130765000I-218750J0D01*
G01*
G37*
G36*
G01*
X255526250Y-129190000D02*
X255013750Y-129190000D01*
G75*
G02*
X254795000Y-128971250I0J218750D01*
G01*
X254795000Y-128533750D01*
G75*
G02*
X255013750Y-128315000I218750J0D01*
G01*
X255526250Y-128315000D01*
G75*
G02*
X255745000Y-128533750I0J-218750D01*
G01*
X255745000Y-128971250D01*
G75*
G02*
X255526250Y-129190000I-218750J0D01*
G01*
G37*
G36*
G01*
X236476250Y-130765000D02*
X235963750Y-130765000D01*
G75*
G02*
X235745000Y-130546250I0J218750D01*
G01*
X235745000Y-130108750D01*
G75*
G02*
X235963750Y-129890000I218750J0D01*
G01*
X236476250Y-129890000D01*
G75*
G02*
X236695000Y-130108750I0J-218750D01*
G01*
X236695000Y-130546250D01*
G75*
G02*
X236476250Y-130765000I-218750J0D01*
G01*
G37*
G36*
G01*
X236476250Y-129190000D02*
X235963750Y-129190000D01*
G75*
G02*
X235745000Y-128971250I0J218750D01*
G01*
X235745000Y-128533750D01*
G75*
G02*
X235963750Y-128315000I218750J0D01*
G01*
X236476250Y-128315000D01*
G75*
G02*
X236695000Y-128533750I0J-218750D01*
G01*
X236695000Y-128971250D01*
G75*
G02*
X236476250Y-129190000I-218750J0D01*
G01*
G37*
G36*
G01*
X217426250Y-130765000D02*
X216913750Y-130765000D01*
G75*
G02*
X216695000Y-130546250I0J218750D01*
G01*
X216695000Y-130108750D01*
G75*
G02*
X216913750Y-129890000I218750J0D01*
G01*
X217426250Y-129890000D01*
G75*
G02*
X217645000Y-130108750I0J-218750D01*
G01*
X217645000Y-130546250D01*
G75*
G02*
X217426250Y-130765000I-218750J0D01*
G01*
G37*
G36*
G01*
X217426250Y-129190000D02*
X216913750Y-129190000D01*
G75*
G02*
X216695000Y-128971250I0J218750D01*
G01*
X216695000Y-128533750D01*
G75*
G02*
X216913750Y-128315000I218750J0D01*
G01*
X217426250Y-128315000D01*
G75*
G02*
X217645000Y-128533750I0J-218750D01*
G01*
X217645000Y-128971250D01*
G75*
G02*
X217426250Y-129190000I-218750J0D01*
G01*
G37*
G36*
G01*
X198376250Y-130765000D02*
X197863750Y-130765000D01*
G75*
G02*
X197645000Y-130546250I0J218750D01*
G01*
X197645000Y-130108750D01*
G75*
G02*
X197863750Y-129890000I218750J0D01*
G01*
X198376250Y-129890000D01*
G75*
G02*
X198595000Y-130108750I0J-218750D01*
G01*
X198595000Y-130546250D01*
G75*
G02*
X198376250Y-130765000I-218750J0D01*
G01*
G37*
G36*
G01*
X198376250Y-129190000D02*
X197863750Y-129190000D01*
G75*
G02*
X197645000Y-128971250I0J218750D01*
G01*
X197645000Y-128533750D01*
G75*
G02*
X197863750Y-128315000I218750J0D01*
G01*
X198376250Y-128315000D01*
G75*
G02*
X198595000Y-128533750I0J-218750D01*
G01*
X198595000Y-128971250D01*
G75*
G02*
X198376250Y-129190000I-218750J0D01*
G01*
G37*
G36*
G01*
X179326250Y-130765000D02*
X178813750Y-130765000D01*
G75*
G02*
X178595000Y-130546250I0J218750D01*
G01*
X178595000Y-130108750D01*
G75*
G02*
X178813750Y-129890000I218750J0D01*
G01*
X179326250Y-129890000D01*
G75*
G02*
X179545000Y-130108750I0J-218750D01*
G01*
X179545000Y-130546250D01*
G75*
G02*
X179326250Y-130765000I-218750J0D01*
G01*
G37*
G36*
G01*
X179326250Y-129190000D02*
X178813750Y-129190000D01*
G75*
G02*
X178595000Y-128971250I0J218750D01*
G01*
X178595000Y-128533750D01*
G75*
G02*
X178813750Y-128315000I218750J0D01*
G01*
X179326250Y-128315000D01*
G75*
G02*
X179545000Y-128533750I0J-218750D01*
G01*
X179545000Y-128971250D01*
G75*
G02*
X179326250Y-129190000I-218750J0D01*
G01*
G37*
G36*
G01*
X160276250Y-130765000D02*
X159763750Y-130765000D01*
G75*
G02*
X159545000Y-130546250I0J218750D01*
G01*
X159545000Y-130108750D01*
G75*
G02*
X159763750Y-129890000I218750J0D01*
G01*
X160276250Y-129890000D01*
G75*
G02*
X160495000Y-130108750I0J-218750D01*
G01*
X160495000Y-130546250D01*
G75*
G02*
X160276250Y-130765000I-218750J0D01*
G01*
G37*
G36*
G01*
X160276250Y-129190000D02*
X159763750Y-129190000D01*
G75*
G02*
X159545000Y-128971250I0J218750D01*
G01*
X159545000Y-128533750D01*
G75*
G02*
X159763750Y-128315000I218750J0D01*
G01*
X160276250Y-128315000D01*
G75*
G02*
X160495000Y-128533750I0J-218750D01*
G01*
X160495000Y-128971250D01*
G75*
G02*
X160276250Y-129190000I-218750J0D01*
G01*
G37*
G36*
G01*
X141226250Y-130765000D02*
X140713750Y-130765000D01*
G75*
G02*
X140495000Y-130546250I0J218750D01*
G01*
X140495000Y-130108750D01*
G75*
G02*
X140713750Y-129890000I218750J0D01*
G01*
X141226250Y-129890000D01*
G75*
G02*
X141445000Y-130108750I0J-218750D01*
G01*
X141445000Y-130546250D01*
G75*
G02*
X141226250Y-130765000I-218750J0D01*
G01*
G37*
G36*
G01*
X141226250Y-129190000D02*
X140713750Y-129190000D01*
G75*
G02*
X140495000Y-128971250I0J218750D01*
G01*
X140495000Y-128533750D01*
G75*
G02*
X140713750Y-128315000I218750J0D01*
G01*
X141226250Y-128315000D01*
G75*
G02*
X141445000Y-128533750I0J-218750D01*
G01*
X141445000Y-128971250D01*
G75*
G02*
X141226250Y-129190000I-218750J0D01*
G01*
G37*
G36*
G01*
X122176250Y-130765000D02*
X121663750Y-130765000D01*
G75*
G02*
X121445000Y-130546250I0J218750D01*
G01*
X121445000Y-130108750D01*
G75*
G02*
X121663750Y-129890000I218750J0D01*
G01*
X122176250Y-129890000D01*
G75*
G02*
X122395000Y-130108750I0J-218750D01*
G01*
X122395000Y-130546250D01*
G75*
G02*
X122176250Y-130765000I-218750J0D01*
G01*
G37*
G36*
G01*
X122176250Y-129190000D02*
X121663750Y-129190000D01*
G75*
G02*
X121445000Y-128971250I0J218750D01*
G01*
X121445000Y-128533750D01*
G75*
G02*
X121663750Y-128315000I218750J0D01*
G01*
X122176250Y-128315000D01*
G75*
G02*
X122395000Y-128533750I0J-218750D01*
G01*
X122395000Y-128971250D01*
G75*
G02*
X122176250Y-129190000I-218750J0D01*
G01*
G37*
G36*
G01*
X103126250Y-130765000D02*
X102613750Y-130765000D01*
G75*
G02*
X102395000Y-130546250I0J218750D01*
G01*
X102395000Y-130108750D01*
G75*
G02*
X102613750Y-129890000I218750J0D01*
G01*
X103126250Y-129890000D01*
G75*
G02*
X103345000Y-130108750I0J-218750D01*
G01*
X103345000Y-130546250D01*
G75*
G02*
X103126250Y-130765000I-218750J0D01*
G01*
G37*
G36*
G01*
X103126250Y-129190000D02*
X102613750Y-129190000D01*
G75*
G02*
X102395000Y-128971250I0J218750D01*
G01*
X102395000Y-128533750D01*
G75*
G02*
X102613750Y-128315000I218750J0D01*
G01*
X103126250Y-128315000D01*
G75*
G02*
X103345000Y-128533750I0J-218750D01*
G01*
X103345000Y-128971250D01*
G75*
G02*
X103126250Y-129190000I-218750J0D01*
G01*
G37*
G36*
G01*
X84076250Y-130765000D02*
X83563750Y-130765000D01*
G75*
G02*
X83345000Y-130546250I0J218750D01*
G01*
X83345000Y-130108750D01*
G75*
G02*
X83563750Y-129890000I218750J0D01*
G01*
X84076250Y-129890000D01*
G75*
G02*
X84295000Y-130108750I0J-218750D01*
G01*
X84295000Y-130546250D01*
G75*
G02*
X84076250Y-130765000I-218750J0D01*
G01*
G37*
G36*
G01*
X84076250Y-129190000D02*
X83563750Y-129190000D01*
G75*
G02*
X83345000Y-128971250I0J218750D01*
G01*
X83345000Y-128533750D01*
G75*
G02*
X83563750Y-128315000I218750J0D01*
G01*
X84076250Y-128315000D01*
G75*
G02*
X84295000Y-128533750I0J-218750D01*
G01*
X84295000Y-128971250D01*
G75*
G02*
X84076250Y-129190000I-218750J0D01*
G01*
G37*
G36*
G01*
X59946250Y-130765000D02*
X59433750Y-130765000D01*
G75*
G02*
X59215000Y-130546250I0J218750D01*
G01*
X59215000Y-130108750D01*
G75*
G02*
X59433750Y-129890000I218750J0D01*
G01*
X59946250Y-129890000D01*
G75*
G02*
X60165000Y-130108750I0J-218750D01*
G01*
X60165000Y-130546250D01*
G75*
G02*
X59946250Y-130765000I-218750J0D01*
G01*
G37*
G36*
G01*
X59946250Y-129190000D02*
X59433750Y-129190000D01*
G75*
G02*
X59215000Y-128971250I0J218750D01*
G01*
X59215000Y-128533750D01*
G75*
G02*
X59433750Y-128315000I218750J0D01*
G01*
X59946250Y-128315000D01*
G75*
G02*
X60165000Y-128533750I0J-218750D01*
G01*
X60165000Y-128971250D01*
G75*
G02*
X59946250Y-129190000I-218750J0D01*
G01*
G37*
G36*
G01*
X388876250Y-111715000D02*
X388363750Y-111715000D01*
G75*
G02*
X388145000Y-111496250I0J218750D01*
G01*
X388145000Y-111058750D01*
G75*
G02*
X388363750Y-110840000I218750J0D01*
G01*
X388876250Y-110840000D01*
G75*
G02*
X389095000Y-111058750I0J-218750D01*
G01*
X389095000Y-111496250D01*
G75*
G02*
X388876250Y-111715000I-218750J0D01*
G01*
G37*
G36*
G01*
X388876250Y-110140000D02*
X388363750Y-110140000D01*
G75*
G02*
X388145000Y-109921250I0J218750D01*
G01*
X388145000Y-109483750D01*
G75*
G02*
X388363750Y-109265000I218750J0D01*
G01*
X388876250Y-109265000D01*
G75*
G02*
X389095000Y-109483750I0J-218750D01*
G01*
X389095000Y-109921250D01*
G75*
G02*
X388876250Y-110140000I-218750J0D01*
G01*
G37*
G36*
G01*
X369826250Y-111715000D02*
X369313750Y-111715000D01*
G75*
G02*
X369095000Y-111496250I0J218750D01*
G01*
X369095000Y-111058750D01*
G75*
G02*
X369313750Y-110840000I218750J0D01*
G01*
X369826250Y-110840000D01*
G75*
G02*
X370045000Y-111058750I0J-218750D01*
G01*
X370045000Y-111496250D01*
G75*
G02*
X369826250Y-111715000I-218750J0D01*
G01*
G37*
G36*
G01*
X369826250Y-110140000D02*
X369313750Y-110140000D01*
G75*
G02*
X369095000Y-109921250I0J218750D01*
G01*
X369095000Y-109483750D01*
G75*
G02*
X369313750Y-109265000I218750J0D01*
G01*
X369826250Y-109265000D01*
G75*
G02*
X370045000Y-109483750I0J-218750D01*
G01*
X370045000Y-109921250D01*
G75*
G02*
X369826250Y-110140000I-218750J0D01*
G01*
G37*
G36*
G01*
X350776250Y-111715000D02*
X350263750Y-111715000D01*
G75*
G02*
X350045000Y-111496250I0J218750D01*
G01*
X350045000Y-111058750D01*
G75*
G02*
X350263750Y-110840000I218750J0D01*
G01*
X350776250Y-110840000D01*
G75*
G02*
X350995000Y-111058750I0J-218750D01*
G01*
X350995000Y-111496250D01*
G75*
G02*
X350776250Y-111715000I-218750J0D01*
G01*
G37*
G36*
G01*
X350776250Y-110140000D02*
X350263750Y-110140000D01*
G75*
G02*
X350045000Y-109921250I0J218750D01*
G01*
X350045000Y-109483750D01*
G75*
G02*
X350263750Y-109265000I218750J0D01*
G01*
X350776250Y-109265000D01*
G75*
G02*
X350995000Y-109483750I0J-218750D01*
G01*
X350995000Y-109921250D01*
G75*
G02*
X350776250Y-110140000I-218750J0D01*
G01*
G37*
G36*
G01*
X322836250Y-110140000D02*
X322323750Y-110140000D01*
G75*
G02*
X322105000Y-109921250I0J218750D01*
G01*
X322105000Y-109483750D01*
G75*
G02*
X322323750Y-109265000I218750J0D01*
G01*
X322836250Y-109265000D01*
G75*
G02*
X323055000Y-109483750I0J-218750D01*
G01*
X323055000Y-109921250D01*
G75*
G02*
X322836250Y-110140000I-218750J0D01*
G01*
G37*
G36*
G01*
X322836250Y-111715000D02*
X322323750Y-111715000D01*
G75*
G02*
X322105000Y-111496250I0J218750D01*
G01*
X322105000Y-111058750D01*
G75*
G02*
X322323750Y-110840000I218750J0D01*
G01*
X322836250Y-110840000D01*
G75*
G02*
X323055000Y-111058750I0J-218750D01*
G01*
X323055000Y-111496250D01*
G75*
G02*
X322836250Y-111715000I-218750J0D01*
G01*
G37*
G36*
G01*
X303786250Y-110140000D02*
X303273750Y-110140000D01*
G75*
G02*
X303055000Y-109921250I0J218750D01*
G01*
X303055000Y-109483750D01*
G75*
G02*
X303273750Y-109265000I218750J0D01*
G01*
X303786250Y-109265000D01*
G75*
G02*
X304005000Y-109483750I0J-218750D01*
G01*
X304005000Y-109921250D01*
G75*
G02*
X303786250Y-110140000I-218750J0D01*
G01*
G37*
G36*
G01*
X303786250Y-111715000D02*
X303273750Y-111715000D01*
G75*
G02*
X303055000Y-111496250I0J218750D01*
G01*
X303055000Y-111058750D01*
G75*
G02*
X303273750Y-110840000I218750J0D01*
G01*
X303786250Y-110840000D01*
G75*
G02*
X304005000Y-111058750I0J-218750D01*
G01*
X304005000Y-111496250D01*
G75*
G02*
X303786250Y-111715000I-218750J0D01*
G01*
G37*
G36*
G01*
X284736250Y-110140000D02*
X284223750Y-110140000D01*
G75*
G02*
X284005000Y-109921250I0J218750D01*
G01*
X284005000Y-109483750D01*
G75*
G02*
X284223750Y-109265000I218750J0D01*
G01*
X284736250Y-109265000D01*
G75*
G02*
X284955000Y-109483750I0J-218750D01*
G01*
X284955000Y-109921250D01*
G75*
G02*
X284736250Y-110140000I-218750J0D01*
G01*
G37*
G36*
G01*
X284736250Y-111715000D02*
X284223750Y-111715000D01*
G75*
G02*
X284005000Y-111496250I0J218750D01*
G01*
X284005000Y-111058750D01*
G75*
G02*
X284223750Y-110840000I218750J0D01*
G01*
X284736250Y-110840000D01*
G75*
G02*
X284955000Y-111058750I0J-218750D01*
G01*
X284955000Y-111496250D01*
G75*
G02*
X284736250Y-111715000I-218750J0D01*
G01*
G37*
G36*
G01*
X264416250Y-110140000D02*
X263903750Y-110140000D01*
G75*
G02*
X263685000Y-109921250I0J218750D01*
G01*
X263685000Y-109483750D01*
G75*
G02*
X263903750Y-109265000I218750J0D01*
G01*
X264416250Y-109265000D01*
G75*
G02*
X264635000Y-109483750I0J-218750D01*
G01*
X264635000Y-109921250D01*
G75*
G02*
X264416250Y-110140000I-218750J0D01*
G01*
G37*
G36*
G01*
X264416250Y-111715000D02*
X263903750Y-111715000D01*
G75*
G02*
X263685000Y-111496250I0J218750D01*
G01*
X263685000Y-111058750D01*
G75*
G02*
X263903750Y-110840000I218750J0D01*
G01*
X264416250Y-110840000D01*
G75*
G02*
X264635000Y-111058750I0J-218750D01*
G01*
X264635000Y-111496250D01*
G75*
G02*
X264416250Y-111715000I-218750J0D01*
G01*
G37*
G36*
G01*
X245366250Y-110140000D02*
X244853750Y-110140000D01*
G75*
G02*
X244635000Y-109921250I0J218750D01*
G01*
X244635000Y-109483750D01*
G75*
G02*
X244853750Y-109265000I218750J0D01*
G01*
X245366250Y-109265000D01*
G75*
G02*
X245585000Y-109483750I0J-218750D01*
G01*
X245585000Y-109921250D01*
G75*
G02*
X245366250Y-110140000I-218750J0D01*
G01*
G37*
G36*
G01*
X245366250Y-111715000D02*
X244853750Y-111715000D01*
G75*
G02*
X244635000Y-111496250I0J218750D01*
G01*
X244635000Y-111058750D01*
G75*
G02*
X244853750Y-110840000I218750J0D01*
G01*
X245366250Y-110840000D01*
G75*
G02*
X245585000Y-111058750I0J-218750D01*
G01*
X245585000Y-111496250D01*
G75*
G02*
X245366250Y-111715000I-218750J0D01*
G01*
G37*
G36*
G01*
X226316250Y-110140000D02*
X225803750Y-110140000D01*
G75*
G02*
X225585000Y-109921250I0J218750D01*
G01*
X225585000Y-109483750D01*
G75*
G02*
X225803750Y-109265000I218750J0D01*
G01*
X226316250Y-109265000D01*
G75*
G02*
X226535000Y-109483750I0J-218750D01*
G01*
X226535000Y-109921250D01*
G75*
G02*
X226316250Y-110140000I-218750J0D01*
G01*
G37*
G36*
G01*
X226316250Y-111715000D02*
X225803750Y-111715000D01*
G75*
G02*
X225585000Y-111496250I0J218750D01*
G01*
X225585000Y-111058750D01*
G75*
G02*
X225803750Y-110840000I218750J0D01*
G01*
X226316250Y-110840000D01*
G75*
G02*
X226535000Y-111058750I0J-218750D01*
G01*
X226535000Y-111496250D01*
G75*
G02*
X226316250Y-111715000I-218750J0D01*
G01*
G37*
G36*
G01*
X207266250Y-110140000D02*
X206753750Y-110140000D01*
G75*
G02*
X206535000Y-109921250I0J218750D01*
G01*
X206535000Y-109483750D01*
G75*
G02*
X206753750Y-109265000I218750J0D01*
G01*
X207266250Y-109265000D01*
G75*
G02*
X207485000Y-109483750I0J-218750D01*
G01*
X207485000Y-109921250D01*
G75*
G02*
X207266250Y-110140000I-218750J0D01*
G01*
G37*
G36*
G01*
X207266250Y-111715000D02*
X206753750Y-111715000D01*
G75*
G02*
X206535000Y-111496250I0J218750D01*
G01*
X206535000Y-111058750D01*
G75*
G02*
X206753750Y-110840000I218750J0D01*
G01*
X207266250Y-110840000D01*
G75*
G02*
X207485000Y-111058750I0J-218750D01*
G01*
X207485000Y-111496250D01*
G75*
G02*
X207266250Y-111715000I-218750J0D01*
G01*
G37*
G36*
G01*
X188216250Y-110140000D02*
X187703750Y-110140000D01*
G75*
G02*
X187485000Y-109921250I0J218750D01*
G01*
X187485000Y-109483750D01*
G75*
G02*
X187703750Y-109265000I218750J0D01*
G01*
X188216250Y-109265000D01*
G75*
G02*
X188435000Y-109483750I0J-218750D01*
G01*
X188435000Y-109921250D01*
G75*
G02*
X188216250Y-110140000I-218750J0D01*
G01*
G37*
G36*
G01*
X188216250Y-111715000D02*
X187703750Y-111715000D01*
G75*
G02*
X187485000Y-111496250I0J218750D01*
G01*
X187485000Y-111058750D01*
G75*
G02*
X187703750Y-110840000I218750J0D01*
G01*
X188216250Y-110840000D01*
G75*
G02*
X188435000Y-111058750I0J-218750D01*
G01*
X188435000Y-111496250D01*
G75*
G02*
X188216250Y-111715000I-218750J0D01*
G01*
G37*
G36*
G01*
X169166250Y-110140000D02*
X168653750Y-110140000D01*
G75*
G02*
X168435000Y-109921250I0J218750D01*
G01*
X168435000Y-109483750D01*
G75*
G02*
X168653750Y-109265000I218750J0D01*
G01*
X169166250Y-109265000D01*
G75*
G02*
X169385000Y-109483750I0J-218750D01*
G01*
X169385000Y-109921250D01*
G75*
G02*
X169166250Y-110140000I-218750J0D01*
G01*
G37*
G36*
G01*
X169166250Y-111715000D02*
X168653750Y-111715000D01*
G75*
G02*
X168435000Y-111496250I0J218750D01*
G01*
X168435000Y-111058750D01*
G75*
G02*
X168653750Y-110840000I218750J0D01*
G01*
X169166250Y-110840000D01*
G75*
G02*
X169385000Y-111058750I0J-218750D01*
G01*
X169385000Y-111496250D01*
G75*
G02*
X169166250Y-111715000I-218750J0D01*
G01*
G37*
G36*
G01*
X149603750Y-104490000D02*
X150116250Y-104490000D01*
G75*
G02*
X150335000Y-104708750I0J-218750D01*
G01*
X150335000Y-105146250D01*
G75*
G02*
X150116250Y-105365000I-218750J0D01*
G01*
X149603750Y-105365000D01*
G75*
G02*
X149385000Y-105146250I0J218750D01*
G01*
X149385000Y-104708750D01*
G75*
G02*
X149603750Y-104490000I218750J0D01*
G01*
G37*
G36*
G01*
X149603750Y-102915000D02*
X150116250Y-102915000D01*
G75*
G02*
X150335000Y-103133750I0J-218750D01*
G01*
X150335000Y-103571250D01*
G75*
G02*
X150116250Y-103790000I-218750J0D01*
G01*
X149603750Y-103790000D01*
G75*
G02*
X149385000Y-103571250I0J218750D01*
G01*
X149385000Y-103133750D01*
G75*
G02*
X149603750Y-102915000I218750J0D01*
G01*
G37*
G36*
G01*
X131066250Y-111715000D02*
X130553750Y-111715000D01*
G75*
G02*
X130335000Y-111496250I0J218750D01*
G01*
X130335000Y-111058750D01*
G75*
G02*
X130553750Y-110840000I218750J0D01*
G01*
X131066250Y-110840000D01*
G75*
G02*
X131285000Y-111058750I0J-218750D01*
G01*
X131285000Y-111496250D01*
G75*
G02*
X131066250Y-111715000I-218750J0D01*
G01*
G37*
G36*
G01*
X131066250Y-110140000D02*
X130553750Y-110140000D01*
G75*
G02*
X130335000Y-109921250I0J218750D01*
G01*
X130335000Y-109483750D01*
G75*
G02*
X130553750Y-109265000I218750J0D01*
G01*
X131066250Y-109265000D01*
G75*
G02*
X131285000Y-109483750I0J-218750D01*
G01*
X131285000Y-109921250D01*
G75*
G02*
X131066250Y-110140000I-218750J0D01*
G01*
G37*
G36*
G01*
X112016250Y-111715000D02*
X111503750Y-111715000D01*
G75*
G02*
X111285000Y-111496250I0J218750D01*
G01*
X111285000Y-111058750D01*
G75*
G02*
X111503750Y-110840000I218750J0D01*
G01*
X112016250Y-110840000D01*
G75*
G02*
X112235000Y-111058750I0J-218750D01*
G01*
X112235000Y-111496250D01*
G75*
G02*
X112016250Y-111715000I-218750J0D01*
G01*
G37*
G36*
G01*
X112016250Y-110140000D02*
X111503750Y-110140000D01*
G75*
G02*
X111285000Y-109921250I0J218750D01*
G01*
X111285000Y-109483750D01*
G75*
G02*
X111503750Y-109265000I218750J0D01*
G01*
X112016250Y-109265000D01*
G75*
G02*
X112235000Y-109483750I0J-218750D01*
G01*
X112235000Y-109921250D01*
G75*
G02*
X112016250Y-110140000I-218750J0D01*
G01*
G37*
G36*
G01*
X92966250Y-111715000D02*
X92453750Y-111715000D01*
G75*
G02*
X92235000Y-111496250I0J218750D01*
G01*
X92235000Y-111058750D01*
G75*
G02*
X92453750Y-110840000I218750J0D01*
G01*
X92966250Y-110840000D01*
G75*
G02*
X93185000Y-111058750I0J-218750D01*
G01*
X93185000Y-111496250D01*
G75*
G02*
X92966250Y-111715000I-218750J0D01*
G01*
G37*
G36*
G01*
X92966250Y-110140000D02*
X92453750Y-110140000D01*
G75*
G02*
X92235000Y-109921250I0J218750D01*
G01*
X92235000Y-109483750D01*
G75*
G02*
X92453750Y-109265000I218750J0D01*
G01*
X92966250Y-109265000D01*
G75*
G02*
X93185000Y-109483750I0J-218750D01*
G01*
X93185000Y-109921250D01*
G75*
G02*
X92966250Y-110140000I-218750J0D01*
G01*
G37*
G36*
G01*
X73916250Y-111715000D02*
X73403750Y-111715000D01*
G75*
G02*
X73185000Y-111496250I0J218750D01*
G01*
X73185000Y-111058750D01*
G75*
G02*
X73403750Y-110840000I218750J0D01*
G01*
X73916250Y-110840000D01*
G75*
G02*
X74135000Y-111058750I0J-218750D01*
G01*
X74135000Y-111496250D01*
G75*
G02*
X73916250Y-111715000I-218750J0D01*
G01*
G37*
G36*
G01*
X73916250Y-110140000D02*
X73403750Y-110140000D01*
G75*
G02*
X73185000Y-109921250I0J218750D01*
G01*
X73185000Y-109483750D01*
G75*
G02*
X73403750Y-109265000I218750J0D01*
G01*
X73916250Y-109265000D01*
G75*
G02*
X74135000Y-109483750I0J-218750D01*
G01*
X74135000Y-109921250D01*
G75*
G02*
X73916250Y-110140000I-218750J0D01*
G01*
G37*
G36*
G01*
X54866250Y-111715000D02*
X54353750Y-111715000D01*
G75*
G02*
X54135000Y-111496250I0J218750D01*
G01*
X54135000Y-111058750D01*
G75*
G02*
X54353750Y-110840000I218750J0D01*
G01*
X54866250Y-110840000D01*
G75*
G02*
X55085000Y-111058750I0J-218750D01*
G01*
X55085000Y-111496250D01*
G75*
G02*
X54866250Y-111715000I-218750J0D01*
G01*
G37*
G36*
G01*
X54866250Y-110140000D02*
X54353750Y-110140000D01*
G75*
G02*
X54135000Y-109921250I0J218750D01*
G01*
X54135000Y-109483750D01*
G75*
G02*
X54353750Y-109265000I218750J0D01*
G01*
X54866250Y-109265000D01*
G75*
G02*
X55085000Y-109483750I0J-218750D01*
G01*
X55085000Y-109921250D01*
G75*
G02*
X54866250Y-110140000I-218750J0D01*
G01*
G37*
G36*
G01*
X321566250Y-83775000D02*
X321053750Y-83775000D01*
G75*
G02*
X320835000Y-83556250I0J218750D01*
G01*
X320835000Y-83118750D01*
G75*
G02*
X321053750Y-82900000I218750J0D01*
G01*
X321566250Y-82900000D01*
G75*
G02*
X321785000Y-83118750I0J-218750D01*
G01*
X321785000Y-83556250D01*
G75*
G02*
X321566250Y-83775000I-218750J0D01*
G01*
G37*
G36*
G01*
X321566250Y-82200000D02*
X321053750Y-82200000D01*
G75*
G02*
X320835000Y-81981250I0J218750D01*
G01*
X320835000Y-81543750D01*
G75*
G02*
X321053750Y-81325000I218750J0D01*
G01*
X321566250Y-81325000D01*
G75*
G02*
X321785000Y-81543750I0J-218750D01*
G01*
X321785000Y-81981250D01*
G75*
G02*
X321566250Y-82200000I-218750J0D01*
G01*
G37*
G36*
G01*
X302516250Y-83775000D02*
X302003750Y-83775000D01*
G75*
G02*
X301785000Y-83556250I0J218750D01*
G01*
X301785000Y-83118750D01*
G75*
G02*
X302003750Y-82900000I218750J0D01*
G01*
X302516250Y-82900000D01*
G75*
G02*
X302735000Y-83118750I0J-218750D01*
G01*
X302735000Y-83556250D01*
G75*
G02*
X302516250Y-83775000I-218750J0D01*
G01*
G37*
G36*
G01*
X302516250Y-82200000D02*
X302003750Y-82200000D01*
G75*
G02*
X301785000Y-81981250I0J218750D01*
G01*
X301785000Y-81543750D01*
G75*
G02*
X302003750Y-81325000I218750J0D01*
G01*
X302516250Y-81325000D01*
G75*
G02*
X302735000Y-81543750I0J-218750D01*
G01*
X302735000Y-81981250D01*
G75*
G02*
X302516250Y-82200000I-218750J0D01*
G01*
G37*
G36*
G01*
X283466250Y-83775000D02*
X282953750Y-83775000D01*
G75*
G02*
X282735000Y-83556250I0J218750D01*
G01*
X282735000Y-83118750D01*
G75*
G02*
X282953750Y-82900000I218750J0D01*
G01*
X283466250Y-82900000D01*
G75*
G02*
X283685000Y-83118750I0J-218750D01*
G01*
X283685000Y-83556250D01*
G75*
G02*
X283466250Y-83775000I-218750J0D01*
G01*
G37*
G36*
G01*
X283466250Y-82200000D02*
X282953750Y-82200000D01*
G75*
G02*
X282735000Y-81981250I0J218750D01*
G01*
X282735000Y-81543750D01*
G75*
G02*
X282953750Y-81325000I218750J0D01*
G01*
X283466250Y-81325000D01*
G75*
G02*
X283685000Y-81543750I0J-218750D01*
G01*
X283685000Y-81981250D01*
G75*
G02*
X283466250Y-82200000I-218750J0D01*
G01*
G37*
G36*
G01*
X264416250Y-83775000D02*
X263903750Y-83775000D01*
G75*
G02*
X263685000Y-83556250I0J218750D01*
G01*
X263685000Y-83118750D01*
G75*
G02*
X263903750Y-82900000I218750J0D01*
G01*
X264416250Y-82900000D01*
G75*
G02*
X264635000Y-83118750I0J-218750D01*
G01*
X264635000Y-83556250D01*
G75*
G02*
X264416250Y-83775000I-218750J0D01*
G01*
G37*
G36*
G01*
X264416250Y-82200000D02*
X263903750Y-82200000D01*
G75*
G02*
X263685000Y-81981250I0J218750D01*
G01*
X263685000Y-81543750D01*
G75*
G02*
X263903750Y-81325000I218750J0D01*
G01*
X264416250Y-81325000D01*
G75*
G02*
X264635000Y-81543750I0J-218750D01*
G01*
X264635000Y-81981250D01*
G75*
G02*
X264416250Y-82200000I-218750J0D01*
G01*
G37*
G36*
G01*
X236476250Y-83775000D02*
X235963750Y-83775000D01*
G75*
G02*
X235745000Y-83556250I0J218750D01*
G01*
X235745000Y-83118750D01*
G75*
G02*
X235963750Y-82900000I218750J0D01*
G01*
X236476250Y-82900000D01*
G75*
G02*
X236695000Y-83118750I0J-218750D01*
G01*
X236695000Y-83556250D01*
G75*
G02*
X236476250Y-83775000I-218750J0D01*
G01*
G37*
G36*
G01*
X236476250Y-82200000D02*
X235963750Y-82200000D01*
G75*
G02*
X235745000Y-81981250I0J218750D01*
G01*
X235745000Y-81543750D01*
G75*
G02*
X235963750Y-81325000I218750J0D01*
G01*
X236476250Y-81325000D01*
G75*
G02*
X236695000Y-81543750I0J-218750D01*
G01*
X236695000Y-81981250D01*
G75*
G02*
X236476250Y-82200000I-218750J0D01*
G01*
G37*
G36*
G01*
X217426250Y-83775000D02*
X216913750Y-83775000D01*
G75*
G02*
X216695000Y-83556250I0J218750D01*
G01*
X216695000Y-83118750D01*
G75*
G02*
X216913750Y-82900000I218750J0D01*
G01*
X217426250Y-82900000D01*
G75*
G02*
X217645000Y-83118750I0J-218750D01*
G01*
X217645000Y-83556250D01*
G75*
G02*
X217426250Y-83775000I-218750J0D01*
G01*
G37*
G36*
G01*
X217426250Y-82200000D02*
X216913750Y-82200000D01*
G75*
G02*
X216695000Y-81981250I0J218750D01*
G01*
X216695000Y-81543750D01*
G75*
G02*
X216913750Y-81325000I218750J0D01*
G01*
X217426250Y-81325000D01*
G75*
G02*
X217645000Y-81543750I0J-218750D01*
G01*
X217645000Y-81981250D01*
G75*
G02*
X217426250Y-82200000I-218750J0D01*
G01*
G37*
G36*
G01*
X198376250Y-83775000D02*
X197863750Y-83775000D01*
G75*
G02*
X197645000Y-83556250I0J218750D01*
G01*
X197645000Y-83118750D01*
G75*
G02*
X197863750Y-82900000I218750J0D01*
G01*
X198376250Y-82900000D01*
G75*
G02*
X198595000Y-83118750I0J-218750D01*
G01*
X198595000Y-83556250D01*
G75*
G02*
X198376250Y-83775000I-218750J0D01*
G01*
G37*
G36*
G01*
X198376250Y-82200000D02*
X197863750Y-82200000D01*
G75*
G02*
X197645000Y-81981250I0J218750D01*
G01*
X197645000Y-81543750D01*
G75*
G02*
X197863750Y-81325000I218750J0D01*
G01*
X198376250Y-81325000D01*
G75*
G02*
X198595000Y-81543750I0J-218750D01*
G01*
X198595000Y-81981250D01*
G75*
G02*
X198376250Y-82200000I-218750J0D01*
G01*
G37*
G36*
G01*
X179326250Y-83775000D02*
X178813750Y-83775000D01*
G75*
G02*
X178595000Y-83556250I0J218750D01*
G01*
X178595000Y-83118750D01*
G75*
G02*
X178813750Y-82900000I218750J0D01*
G01*
X179326250Y-82900000D01*
G75*
G02*
X179545000Y-83118750I0J-218750D01*
G01*
X179545000Y-83556250D01*
G75*
G02*
X179326250Y-83775000I-218750J0D01*
G01*
G37*
G36*
G01*
X179326250Y-82200000D02*
X178813750Y-82200000D01*
G75*
G02*
X178595000Y-81981250I0J218750D01*
G01*
X178595000Y-81543750D01*
G75*
G02*
X178813750Y-81325000I218750J0D01*
G01*
X179326250Y-81325000D01*
G75*
G02*
X179545000Y-81543750I0J-218750D01*
G01*
X179545000Y-81981250D01*
G75*
G02*
X179326250Y-82200000I-218750J0D01*
G01*
G37*
G36*
G01*
X150116250Y-83775000D02*
X149603750Y-83775000D01*
G75*
G02*
X149385000Y-83556250I0J218750D01*
G01*
X149385000Y-83118750D01*
G75*
G02*
X149603750Y-82900000I218750J0D01*
G01*
X150116250Y-82900000D01*
G75*
G02*
X150335000Y-83118750I0J-218750D01*
G01*
X150335000Y-83556250D01*
G75*
G02*
X150116250Y-83775000I-218750J0D01*
G01*
G37*
G36*
G01*
X150116250Y-82200000D02*
X149603750Y-82200000D01*
G75*
G02*
X149385000Y-81981250I0J218750D01*
G01*
X149385000Y-81543750D01*
G75*
G02*
X149603750Y-81325000I218750J0D01*
G01*
X150116250Y-81325000D01*
G75*
G02*
X150335000Y-81543750I0J-218750D01*
G01*
X150335000Y-81981250D01*
G75*
G02*
X150116250Y-82200000I-218750J0D01*
G01*
G37*
G36*
G01*
X131066250Y-83775000D02*
X130553750Y-83775000D01*
G75*
G02*
X130335000Y-83556250I0J218750D01*
G01*
X130335000Y-83118750D01*
G75*
G02*
X130553750Y-82900000I218750J0D01*
G01*
X131066250Y-82900000D01*
G75*
G02*
X131285000Y-83118750I0J-218750D01*
G01*
X131285000Y-83556250D01*
G75*
G02*
X131066250Y-83775000I-218750J0D01*
G01*
G37*
G36*
G01*
X131066250Y-82200000D02*
X130553750Y-82200000D01*
G75*
G02*
X130335000Y-81981250I0J218750D01*
G01*
X130335000Y-81543750D01*
G75*
G02*
X130553750Y-81325000I218750J0D01*
G01*
X131066250Y-81325000D01*
G75*
G02*
X131285000Y-81543750I0J-218750D01*
G01*
X131285000Y-81981250D01*
G75*
G02*
X131066250Y-82200000I-218750J0D01*
G01*
G37*
G36*
G01*
X112016250Y-83775000D02*
X111503750Y-83775000D01*
G75*
G02*
X111285000Y-83556250I0J218750D01*
G01*
X111285000Y-83118750D01*
G75*
G02*
X111503750Y-82900000I218750J0D01*
G01*
X112016250Y-82900000D01*
G75*
G02*
X112235000Y-83118750I0J-218750D01*
G01*
X112235000Y-83556250D01*
G75*
G02*
X112016250Y-83775000I-218750J0D01*
G01*
G37*
G36*
G01*
X112016250Y-82200000D02*
X111503750Y-82200000D01*
G75*
G02*
X111285000Y-81981250I0J218750D01*
G01*
X111285000Y-81543750D01*
G75*
G02*
X111503750Y-81325000I218750J0D01*
G01*
X112016250Y-81325000D01*
G75*
G02*
X112235000Y-81543750I0J-218750D01*
G01*
X112235000Y-81981250D01*
G75*
G02*
X112016250Y-82200000I-218750J0D01*
G01*
G37*
G36*
G01*
X92966250Y-83775000D02*
X92453750Y-83775000D01*
G75*
G02*
X92235000Y-83556250I0J218750D01*
G01*
X92235000Y-83118750D01*
G75*
G02*
X92453750Y-82900000I218750J0D01*
G01*
X92966250Y-82900000D01*
G75*
G02*
X93185000Y-83118750I0J-218750D01*
G01*
X93185000Y-83556250D01*
G75*
G02*
X92966250Y-83775000I-218750J0D01*
G01*
G37*
G36*
G01*
X92966250Y-82200000D02*
X92453750Y-82200000D01*
G75*
G02*
X92235000Y-81981250I0J218750D01*
G01*
X92235000Y-81543750D01*
G75*
G02*
X92453750Y-81325000I218750J0D01*
G01*
X92966250Y-81325000D01*
G75*
G02*
X93185000Y-81543750I0J-218750D01*
G01*
X93185000Y-81981250D01*
G75*
G02*
X92966250Y-82200000I-218750J0D01*
G01*
G37*
G36*
G01*
X54866250Y-83775000D02*
X54353750Y-83775000D01*
G75*
G02*
X54135000Y-83556250I0J218750D01*
G01*
X54135000Y-83118750D01*
G75*
G02*
X54353750Y-82900000I218750J0D01*
G01*
X54866250Y-82900000D01*
G75*
G02*
X55085000Y-83118750I0J-218750D01*
G01*
X55085000Y-83556250D01*
G75*
G02*
X54866250Y-83775000I-218750J0D01*
G01*
G37*
G36*
G01*
X54866250Y-82200000D02*
X54353750Y-82200000D01*
G75*
G02*
X54135000Y-81981250I0J218750D01*
G01*
X54135000Y-81543750D01*
G75*
G02*
X54353750Y-81325000I218750J0D01*
G01*
X54866250Y-81325000D01*
G75*
G02*
X55085000Y-81543750I0J-218750D01*
G01*
X55085000Y-81981250D01*
G75*
G02*
X54866250Y-82200000I-218750J0D01*
G01*
G37*
D13*
X154876500Y-61531500D03*
X154876500Y-64071500D03*
D14*
X154876500Y-66611500D03*
D13*
X154876500Y-69151500D03*
X154876500Y-71691500D03*
X154876500Y-74231500D03*
X154876500Y-76771500D03*
D14*
X154876500Y-79311500D03*
D13*
X154876500Y-81851500D03*
X154876500Y-84391500D03*
X154876500Y-86931500D03*
X154876500Y-89471500D03*
D14*
X154876500Y-92011500D03*
D13*
X154876500Y-94551500D03*
X154876500Y-97091500D03*
X154876500Y-99631500D03*
X154876500Y-102171500D03*
D14*
X154876500Y-104711500D03*
D13*
X154876500Y-107251500D03*
X154876500Y-109791500D03*
X137096500Y-109791500D03*
X137096500Y-107251500D03*
D14*
X137096500Y-104711500D03*
D13*
X137096500Y-102171500D03*
X137096500Y-99631500D03*
X137096500Y-97091500D03*
X137096500Y-94551500D03*
D14*
X137096500Y-92011500D03*
D13*
X137096500Y-89471500D03*
X137096500Y-86931500D03*
X137096500Y-84391500D03*
X137096500Y-81851500D03*
D14*
X137096500Y-79311500D03*
D13*
X137096500Y-76771500D03*
X137096500Y-74231500D03*
X137096500Y-71691500D03*
X137096500Y-69151500D03*
D14*
X137096500Y-66611500D03*
D13*
X137096500Y-64071500D03*
X137096500Y-61531500D03*
D15*
X49530000Y-71120000D03*
D16*
X52070000Y-71120000D03*
D15*
X87630000Y-99695000D03*
D16*
X90170000Y-99695000D03*
D15*
X382905000Y-99695000D03*
D16*
X385445000Y-99695000D03*
D15*
X344805000Y-118745000D03*
D16*
X347345000Y-118745000D03*
X275907500Y-137795000D03*
D15*
X273367500Y-137795000D03*
X306705000Y-156845000D03*
D16*
X309245000Y-156845000D03*
X90170000Y-71120000D03*
D15*
X87630000Y-71120000D03*
D16*
X109220000Y-99695000D03*
D15*
X106680000Y-99695000D03*
D16*
X56833000Y-118745000D03*
D15*
X54293000Y-118745000D03*
D16*
X366395000Y-118745000D03*
D15*
X363855000Y-118745000D03*
X292417500Y-137795000D03*
D16*
X294957500Y-137795000D03*
X366395000Y-156845000D03*
D15*
X363855000Y-156845000D03*
X106680000Y-71120000D03*
D16*
X109220000Y-71120000D03*
D15*
X125730000Y-99695000D03*
D16*
X128270000Y-99695000D03*
D15*
X78105000Y-118745000D03*
D16*
X80645000Y-118745000D03*
D15*
X382905000Y-118745000D03*
D16*
X385445000Y-118745000D03*
X61595000Y-156845000D03*
D15*
X59055000Y-156845000D03*
X51911000Y-175895000D03*
D16*
X54451000Y-175895000D03*
X128270000Y-71120000D03*
D15*
X125730000Y-71120000D03*
D16*
X147320000Y-99695000D03*
D15*
X144780000Y-99695000D03*
D16*
X99695000Y-118745000D03*
D15*
X97155000Y-118745000D03*
D16*
X59214000Y-137795000D03*
D15*
X56674000Y-137795000D03*
X87630000Y-156845000D03*
D16*
X90170000Y-156845000D03*
X78263500Y-175895000D03*
D15*
X75723500Y-175895000D03*
X144780000Y-71120000D03*
D16*
X147320000Y-71120000D03*
D15*
X163830000Y-99695000D03*
D16*
X166370000Y-99695000D03*
D15*
X116205000Y-118745000D03*
D16*
X118745000Y-118745000D03*
D15*
X82867500Y-137795000D03*
D16*
X85407500Y-137795000D03*
X109220000Y-156845000D03*
D15*
X106680000Y-156845000D03*
X99536000Y-175895000D03*
D16*
X102076000Y-175895000D03*
X175895000Y-71120000D03*
D15*
X173355000Y-71120000D03*
D16*
X185420000Y-99695000D03*
D15*
X182880000Y-99695000D03*
D16*
X137795000Y-118745000D03*
D15*
X135255000Y-118745000D03*
D16*
X104457500Y-137795000D03*
D15*
X101917500Y-137795000D03*
D16*
X128270000Y-156845000D03*
D15*
X125730000Y-156845000D03*
D16*
X125888500Y-175895000D03*
D15*
X123348500Y-175895000D03*
D16*
X194945000Y-71120000D03*
D15*
X192405000Y-71120000D03*
X201930000Y-99695000D03*
D16*
X204470000Y-99695000D03*
D15*
X154305000Y-118745000D03*
D16*
X156845000Y-118745000D03*
D15*
X120967500Y-137795000D03*
D16*
X123507500Y-137795000D03*
D15*
X144780000Y-156845000D03*
D16*
X147320000Y-156845000D03*
D15*
X182880000Y-175895000D03*
D16*
X185420000Y-175895000D03*
D15*
X211455000Y-71120000D03*
D16*
X213995000Y-71120000D03*
X223520000Y-99695000D03*
D15*
X220980000Y-99695000D03*
D16*
X175895000Y-118745000D03*
D15*
X173355000Y-118745000D03*
D16*
X142557500Y-137795000D03*
D15*
X140017500Y-137795000D03*
D16*
X166370000Y-156845000D03*
D15*
X163830000Y-156845000D03*
D16*
X244951000Y-175895000D03*
D15*
X242411000Y-175895000D03*
D16*
X233045000Y-71120000D03*
D15*
X230505000Y-71120000D03*
X240030000Y-99695000D03*
D16*
X242570000Y-99695000D03*
D15*
X192405000Y-118745000D03*
D16*
X194945000Y-118745000D03*
D15*
X159067500Y-137795000D03*
D16*
X161607500Y-137795000D03*
D15*
X182880000Y-156845000D03*
D16*
X185420000Y-156845000D03*
X268763500Y-175895000D03*
D15*
X266223500Y-175895000D03*
X259080000Y-71120000D03*
D16*
X261620000Y-71120000D03*
X261620000Y-99695000D03*
D15*
X259080000Y-99695000D03*
D16*
X213995000Y-118745000D03*
D15*
X211455000Y-118745000D03*
D16*
X180657500Y-137795000D03*
D15*
X178117500Y-137795000D03*
D16*
X204470000Y-156845000D03*
D15*
X201930000Y-156845000D03*
X290036000Y-175895000D03*
D16*
X292576000Y-175895000D03*
X280670000Y-71120000D03*
D15*
X278130000Y-71120000D03*
X278130000Y-99695000D03*
D16*
X280670000Y-99695000D03*
D15*
X230505000Y-118745000D03*
D16*
X233045000Y-118745000D03*
D15*
X197167500Y-137795000D03*
D16*
X199707500Y-137795000D03*
D15*
X220980000Y-156845000D03*
D16*
X223520000Y-156845000D03*
D15*
X313848499Y-175895000D03*
D16*
X316388499Y-175895000D03*
D15*
X297180000Y-71120000D03*
D16*
X299720000Y-71120000D03*
X299720000Y-99695000D03*
D15*
X297180000Y-99695000D03*
D16*
X252095000Y-118745000D03*
D15*
X249555000Y-118745000D03*
D16*
X218757500Y-137795000D03*
D15*
X216217500Y-137795000D03*
X240030000Y-156845000D03*
D16*
X242570000Y-156845000D03*
X347345000Y-175895000D03*
D15*
X344805000Y-175895000D03*
D16*
X318770000Y-71120000D03*
D15*
X316230000Y-71120000D03*
X316230000Y-99695000D03*
D16*
X318770000Y-99695000D03*
D15*
X268605000Y-118745000D03*
D16*
X271145000Y-118745000D03*
D15*
X235267500Y-137795000D03*
D16*
X237807500Y-137795000D03*
D15*
X259080000Y-156845000D03*
D16*
X261620000Y-156845000D03*
D15*
X363855000Y-175895000D03*
D16*
X366395000Y-175895000D03*
D15*
X49530000Y-99695000D03*
D16*
X52070000Y-99695000D03*
X347345000Y-99695000D03*
D15*
X344805000Y-99695000D03*
D16*
X290195000Y-118745000D03*
D15*
X287655000Y-118745000D03*
D16*
X256857500Y-137795000D03*
D15*
X254317500Y-137795000D03*
D16*
X280670000Y-156845000D03*
D15*
X278130000Y-156845000D03*
D16*
X385445000Y-175895000D03*
D15*
X382905000Y-175895000D03*
D16*
X71120000Y-99695000D03*
D15*
X68580000Y-99695000D03*
X363855000Y-99695000D03*
D16*
X366395000Y-99695000D03*
D15*
X313848499Y-128270000D03*
D16*
X316388499Y-128270000D03*
G36*
G01*
X147045000Y-93390000D02*
X147595000Y-93390000D01*
G75*
G02*
X147795000Y-93590000I0J-200000D01*
G01*
X147795000Y-93990000D01*
G75*
G02*
X147595000Y-94190000I-200000J0D01*
G01*
X147045000Y-94190000D01*
G75*
G02*
X146845000Y-93990000I0J200000D01*
G01*
X146845000Y-93590000D01*
G75*
G02*
X147045000Y-93390000I200000J0D01*
G01*
G37*
G36*
G01*
X147045000Y-95040000D02*
X147595000Y-95040000D01*
G75*
G02*
X147795000Y-95240000I0J-200000D01*
G01*
X147795000Y-95640000D01*
G75*
G02*
X147595000Y-95840000I-200000J0D01*
G01*
X147045000Y-95840000D01*
G75*
G02*
X146845000Y-95640000I0J200000D01*
G01*
X146845000Y-95240000D01*
G75*
G02*
X147045000Y-95040000I200000J0D01*
G01*
G37*
G36*
G01*
X67670000Y-124250000D02*
X68220000Y-124250000D01*
G75*
G02*
X68420000Y-124450000I0J-200000D01*
G01*
X68420000Y-124850000D01*
G75*
G02*
X68220000Y-125050000I-200000J0D01*
G01*
X67670000Y-125050000D01*
G75*
G02*
X67470000Y-124850000I0J200000D01*
G01*
X67470000Y-124450000D01*
G75*
G02*
X67670000Y-124250000I200000J0D01*
G01*
G37*
G36*
G01*
X67670000Y-122600000D02*
X68220000Y-122600000D01*
G75*
G02*
X68420000Y-122800000I0J-200000D01*
G01*
X68420000Y-123200000D01*
G75*
G02*
X68220000Y-123400000I-200000J0D01*
G01*
X67670000Y-123400000D01*
G75*
G02*
X67470000Y-123200000I0J200000D01*
G01*
X67470000Y-122800000D01*
G75*
G02*
X67670000Y-122600000I200000J0D01*
G01*
G37*
G36*
G01*
X74655000Y-162350000D02*
X75205000Y-162350000D01*
G75*
G02*
X75405000Y-162550000I0J-200000D01*
G01*
X75405000Y-162950000D01*
G75*
G02*
X75205000Y-163150000I-200000J0D01*
G01*
X74655000Y-163150000D01*
G75*
G02*
X74455000Y-162950000I0J200000D01*
G01*
X74455000Y-162550000D01*
G75*
G02*
X74655000Y-162350000I200000J0D01*
G01*
G37*
G36*
G01*
X74655000Y-160700000D02*
X75205000Y-160700000D01*
G75*
G02*
X75405000Y-160900000I0J-200000D01*
G01*
X75405000Y-161300000D01*
G75*
G02*
X75205000Y-161500000I-200000J0D01*
G01*
X74655000Y-161500000D01*
G75*
G02*
X74455000Y-161300000I0J200000D01*
G01*
X74455000Y-160900000D01*
G75*
G02*
X74655000Y-160700000I200000J0D01*
G01*
G37*
G36*
G01*
X118470000Y-71545000D02*
X119020000Y-71545000D01*
G75*
G02*
X119220000Y-71745000I0J-200000D01*
G01*
X119220000Y-72145000D01*
G75*
G02*
X119020000Y-72345000I-200000J0D01*
G01*
X118470000Y-72345000D01*
G75*
G02*
X118270000Y-72145000I0J200000D01*
G01*
X118270000Y-71745000D01*
G75*
G02*
X118470000Y-71545000I200000J0D01*
G01*
G37*
G36*
G01*
X118470000Y-69895000D02*
X119020000Y-69895000D01*
G75*
G02*
X119220000Y-70095000I0J-200000D01*
G01*
X119220000Y-70495000D01*
G75*
G02*
X119020000Y-70695000I-200000J0D01*
G01*
X118470000Y-70695000D01*
G75*
G02*
X118270000Y-70495000I0J200000D01*
G01*
X118270000Y-70095000D01*
G75*
G02*
X118470000Y-69895000I200000J0D01*
G01*
G37*
G36*
G01*
X71480000Y-143300000D02*
X72030000Y-143300000D01*
G75*
G02*
X72230000Y-143500000I0J-200000D01*
G01*
X72230000Y-143900000D01*
G75*
G02*
X72030000Y-144100000I-200000J0D01*
G01*
X71480000Y-144100000D01*
G75*
G02*
X71280000Y-143900000I0J200000D01*
G01*
X71280000Y-143500000D01*
G75*
G02*
X71480000Y-143300000I200000J0D01*
G01*
G37*
G36*
G01*
X71480000Y-141650000D02*
X72030000Y-141650000D01*
G75*
G02*
X72230000Y-141850000I0J-200000D01*
G01*
X72230000Y-142250000D01*
G75*
G02*
X72030000Y-142450000I-200000J0D01*
G01*
X71480000Y-142450000D01*
G75*
G02*
X71280000Y-142250000I0J200000D01*
G01*
X71280000Y-141850000D01*
G75*
G02*
X71480000Y-141650000I200000J0D01*
G01*
G37*
D17*
X40640000Y-133350000D03*
X40640000Y-66040000D03*
X127000000Y-64770000D03*
X40640000Y-190500000D03*
X165100000Y-64770000D03*
X327660000Y-66040000D03*
X246380000Y-66040000D03*
X393700000Y-95250000D03*
X331470000Y-180340000D03*
X300990000Y-130810000D03*
X222250000Y-180340000D03*
X393700000Y-190500000D03*
X331470000Y-130810000D03*
X146050000Y-180340000D03*
X334010000Y-88900000D03*
M02*
